<?xml version="1.0" encoding="UTF-8" standalone="no"?>
<svg
   width="80"
   height="80"
   viewBox="0 0 79.999998 79.999998"
   version="1.1"
   id="svg1"
   sodipodi:docname="icon.svg"
   inkscape:version="1.3.2 (091e20ef0f, 2023-11-25, custom)"
   xmlns:inkscape="http://www.inkscape.org/namespaces/inkscape"
   xmlns:sodipodi="http://sodipodi.sourceforge.net/DTD/sodipodi-0.dtd"
   xmlns="http://www.w3.org/2000/svg"
   xmlns:svg="http://www.w3.org/2000/svg">
  <defs
     id="defs1" />
  <sodipodi:namedview
     id="namedview1"
     pagecolor="#ffffff"
     bordercolor="#000000"
     borderopacity="0.25"
     inkscape:showpageshadow="2"
     inkscape:pageopacity="0.0"
     inkscape:pagecheckerboard="0"
     inkscape:deskcolor="#d1d1d1"
     inkscape:zoom="5.9832038"
     inkscape:cx="23.900239"
     inkscape:cy="31.588428"
     inkscape:window-width="1536"
     inkscape:window-height="836"
     inkscape:window-x="0"
     inkscape:window-y="0"
     inkscape:window-maximized="1"
     inkscape:current-layer="svg1" />
  <rect
     style="opacity:1;fill:#744441;fill-opacity:1;stroke:#744441;stroke-width:0;stroke-linejoin:round;stroke-dasharray:none"
     id="rect2"
     width="80"
     height="80"
     x="0"
     y="0"
     ry="40" />
  <path
     id="Path_4"
     data-name="Path 4"
     d="m 53.786319,43.93297 c -0.0098,0.0434 -0.02279,0.0868 -0.03255,0.130205 A 22.103289,22.103289 0 0 0 50.625607,34.608162 C 50.432471,34.282651 50.220888,33.984266 50.016901,33.67286 a 8.50669,8.50669 0 0 1 1.490841,-6.445119 9.97366,9.97366 0 0 0 1.579814,-5.099674 45.647506,45.647506 0 0 1 0.698763,21.804903 z m -1.420313,14.905153 c -1.426824,3.836691 -4.138332,7.071186 -6.28779,10.534624 -1.33134,2.176585 -2.841712,4.260941 -4.150266,6.463566 0.01085,-0.03364 0.02496,-0.07053 0.03689,-0.103079 1.6026,-4.592961 2.898134,-9.294427 4.688445,-13.816861 a 63.331439,63.331439 0 0 1 4.12314,-8.788799 c 0.894071,-1.550518 1.756675,-3.134672 2.507521,-4.774163 a 24.866878,24.866878 0 0 1 -0.91794,10.484712 z M 33.920377,69.372747 C 31.772003,65.909309 29.059411,62.674814 27.633672,58.838123 A 24.867963,24.867963 0 0 1 26.713561,48.364261 c 0.751931,1.634066 1.61345,3.21822 2.50752,4.774163 a 63.080796,63.080796 0 0 1 4.123141,8.7888 c 1.790311,4.522434 3.08693,9.222814 4.68953,13.816861 0.01085,0.03255 0.02496,0.06944 0.03581,0.103078 -1.306384,-2.213475 -2.817841,-4.297831 -4.149181,-6.474416 z M 26.906698,22.158448 a 10.85037,10.85037 0 0 0 0.317915,2.108227 7.8860489,7.8860489 0 0 0 0.454631,1.389932 9.1262461,9.1262461 0 0 0 0.800757,1.519052 8.6217039,8.6217039 0 0 1 1.488671,6.521072 c -0.198562,0.304896 -0.405804,0.602196 -0.5946,0.914686 a 22.105459,22.105459 0 0 0 -3.129247,9.455013 c -0.0098,-0.0434 -0.0217,-0.0868 -0.03255,-0.130205 a 45.625806,45.625806 0 0 1 0.694424,-21.777777 z m 3.722761,-8.832201 a 10.272045,10.272045 0 0 0 0.7107,4.035252 9.122991,9.122991 0 0 0 0.434015,1.03187 c 0.01302,0.02279 0.02713,0.04449 0.03906,0.06619 a 8.152968,8.152968 0 0 0 0.705274,1.147969 12.926046,12.926046 0 0 1 2.086526,3.898538 12.727484,12.727484 0 0 1 0.506712,3.480798 c -0.261494,0.315746 -0.527328,0.628237 -0.783396,0.948323 -1.261898,1.559198 -2.544412,3.116226 -3.708657,4.774163 a 10.177647,10.177647 0 0 0 -2.08978,-5.571667 6.6512768,6.6512768 0 0 1 -0.793162,-1.364977 8.2148151,8.2148151 0 0 1 -0.311406,-0.840904 8.6575102,8.6575102 0 0 1 -0.256068,-3.673935 38.816113,38.816113 0 0 1 3.460182,-7.93162 z M 33.13264,9.567679 c 0.243048,-0.3255111 0.494777,-0.6401719 0.748675,-0.9537475 a 3.8236704,3.8236704 0 0 0 0.519733,-0.7389102 l 0.04666,0.2083271 a 43.475262,43.475262 0 0 0 5.316681,13.7897346 c -1.551603,1.565708 -3.044614,3.195434 -4.461672,4.882667 a 11.464501,11.464501 0 0 0 -2.446759,-6.732655 8.476309,8.476309 0 0 1 -0.542518,-0.73674 l 0.05317,0.08355 c -0.02604,-0.04015 -0.05425,-0.07921 -0.08029,-0.120439 0.0087,0.01302 0.01845,0.02496 0.02713,0.03689 l -0.05751,-0.08897 c -0.05968,-0.0944 -0.108504,-0.193137 -0.169266,-0.289705 -0.09006,-0.15299 -0.184456,-0.304895 -0.264749,-0.463311 -0.04015,-0.07704 -0.0727,-0.15733 -0.108504,-0.234368 -0.09331,-0.197477 -0.182286,-0.398208 -0.261493,-0.60111 a 9.473458,9.473458 0 0 1 -0.481767,-4.442145 c 0.0076,-0.07161 0.02387,-0.29513 0.03472,-0.361318 -0.0087,-0.02496 0.01628,-0.04666 -0.0098,-0.07378 a 36.146922,36.146922 0 0 1 2.137523,-3.1639674 z m 4.490968,-3.1769881 h 0.0087 c 2.531392,-0.8116077 4.845775,-0.3884433 7.61913,1.3660613 v 0.022786 l -0.03906,0.2376231 -0.08138,0.4752462 Q 45.01705,9.1108784 44.891186,9.7282644 A 8.8680073,8.8680073 0 0 0 35.103067,9.6067403 c -0.01194,-0.056422 -0.02496,-0.1085037 -0.03689,-0.1703508 -0.05534,-0.291875 -0.223518,-1.143629 -0.269089,-1.4192284 L 34.756938,7.779538 V 7.760007 c 0.0065,0 0.0087,-0.0076 0.01411,-0.00977 A 13.398037,13.398037 0 0 1 37.62361,6.3906859 Z m 1.886879,-6.45379986 c 0.175776,0.014105 0.488267,0.035806 0.493692,0.041231 0.0054,0.00543 0.02713,-0.011935 0.04123,-0.017361 V 9.0703583e-4 L 40.529336,-0.04032396 a 11.478606,11.478606 0 0 0 0.88756,4.99117006 6.1847109,6.1847109 0 0 0 0.507798,0.9266216 9.9063877,9.9063877 0 0 0 -3.715167,-0.054252 11.809543,11.809543 0 0 0 1.300959,-5.88632546 z m 6.59377,8.68789076 c 0.254984,0.3135757 0.507797,0.6293215 0.751931,0.9504924 a 35.744374,35.744374 0 0 1 2.291598,3.4026758 9.2021987,9.2021987 0 0 1 -1.947642,7.095057 11.463416,11.463416 0 0 0 -2.446758,6.75544 C 43.318967,25.113004 41.807511,23.464832 40.235292,21.873083 A 43.817049,43.817049 0 0 0 45.551973,8.0833484 l 0.04666,-0.202902 a 1.1403739,1.1403739 0 0 0 0.145395,0.3005553 z M 35.33418,51.788638 a 39.801327,39.801327 0 0 1 1.855413,-4.960789 c 1.442014,-3.239921 3.544816,-6.138054 4.726421,-9.502754 1.670957,-4.645043 0.892986,-9.797884 -1.096972,-14.23026 1.508201,1.698083 2.94262,3.454758 4.329297,5.253749 0.827884,1.032955 1.642746,2.085441 2.414208,3.163968 a 23.793776,23.793776 0 0 1 0.716124,10.1158 c -0.715039,5.339467 -4.091674,9.733866 -6.380017,14.474393 a 60.095859,60.095859 0 0 0 -4.99117,14.305128 q -1.46263,-4.182818 -3.132502,-8.288598 A 38.220428,38.220428 0 0 1 35.33418,51.788638 Z m 8.463288,-37.796179 a 27.386334,27.386334 0 0 1 -1.872773,4.563666 24.767054,24.767054 0 0 1 -1.924856,3.026168 24.77465,24.77465 0 0 1 -1.925941,-3.026168 26.232939,26.232939 0 0 1 -1.892304,-4.648298 6.5340928,6.5340928 0 0 1 7.615874,0.08463 z m 0.05859,-0.179031 A 7.6505958,7.6505958 0 0 0 36.12734,13.727708 C 35.736729,12.433262 35.416643,11.114942 35.139958,9.7922816 a 7.9316204,7.9316204 0 0 1 9.707826,0.1247793 C 44.57544,11.228871 44.252099,12.533085 43.85606,13.813428 Z m -9.005805,14.539496 c 1.61562,-2.094121 3.292003,-4.135076 5.077973,-6.088143 2.302449,4.597302 3.34517,9.998616 1.696998,14.968086 a 29.977402,29.977402 0 0 1 -2.139693,4.819734 51.098732,51.098732 0 0 0 -4.156776,9.739292 46.252957,46.252957 0 0 0 -1.779461,9.780524 q -1.801161,-4.39657 -3.841031,-8.691147 a 47.280487,47.280487 0 0 1 -2.79397,-6.440779 c 0.15299,-1.281429 0.335276,-2.554177 0.512137,-3.807395 0.832224,-5.477267 4.022232,-10.039847 7.423823,-14.284512 z m 5.169117,51.201811 -0.01953,0.05642 -0.01953,-0.05642 C 39.566909,78.312367 38.986414,76.78138 38.613162,75.527077 q -0.759526,-2.387081 -1.585239,-4.752462 a 69.200404,69.200404 0 0 1 7.389102,-19.342954 c 3.745547,-5.995915 5.296065,-11.940832 3.944109,-18.759205 0.325511,0.488267 0.651022,0.976534 0.950492,1.484331 a 0.39820858,0.39820858 0 0 0 0.08789,0.14865 22.922491,22.922491 0 0 1 3.172649,8.323319 c 0.176861,1.253217 0.358062,2.525966 0.511052,3.807395 a 47.135092,47.135092 0 0 1 -2.792885,6.440779 178.14788,178.14788 0 0 0 -8.904899,22.645807 c -0.373253,1.262983 -0.952662,2.782035 -1.366061,4.027657 z M 52.78049,21.113557 a 7.92077,7.92077 0 0 1 -1.323745,6.084888 10.12231,10.12231 0 0 0 -2.083271,5.509818 c -1.164245,-1.655767 -2.444589,-3.21171 -3.704317,-4.768738 -0.239793,-0.298385 -0.487181,-0.59026 -0.731315,-0.88322 a 11.423269,11.423269 0 0 1 2.297024,-6.954002 10.409845,10.409845 0 0 0 2.096291,-6.827053 38.42767,38.42767 0 0 1 3.449333,7.833967 z M 50.996689,15.590719 A 43.901682,43.901682 0 0 0 47.106831,9.391903 11.255089,11.255089 0 0 0 45.572589,7.5560204 0.17143584,0.17143584 0 0 0 45.517252,7.4811528 8.5490065,8.5490065 0 0 0 42.578972,6.041309 4.3086819,4.3086819 0 0 0 41.980031,4.6774175 10.447821,10.447821 0 0 1 40.757195,-0.16293236 l -0.120439,-0.116099 h -0.576155 c -0.01736,-0.00977 -0.0293,-0.024956 -0.05425,-0.024956 h -0.60328 a 0.1085037,0.1085037 0 0 0 -0.119354,0.115014 A 13.182114,13.182114 0 0 1 37.4793,5.9555909 l 0.04015,0.022786 a 7.7916506,7.7916506 0 0 0 -2.911154,1.4300788 v 0 l -0.0098,0.00868 c -0.05751,0.045571 -0.119354,0.086803 -0.175776,0.1345443 a 0.1670957,0.1670957 0 0 0 -0.07378,0.088973 13.562962,13.562962 0 0 0 -1.446354,1.7545048 43.345058,43.345058 0 0 0 -3.899623,6.1912212 c -4.532199,8.66619 -6.308405,19.06193 -3.867072,28.620021 a 27.697739,27.697739 0 0 0 0.917941,2.629044 32.876621,32.876621 0 0 0 1.117589,12.152414 c 1.595004,5.385039 4.966214,9.904218 8.199624,14.390846 a 40.828857,40.828857 0 0 1 4.448652,6.869369 c 0,0.01194 0,-0.0141 -0.0054,-0.04015 l 0.01519,0.02713 a 0.2170074,0.2170074 0 0 0 0.154075,0.06944 h 0.01085 0.0098 0.01194 a 0.2170074,0.2170074 0 0 0 0.152991,-0.06944 0.09005807,0.09005807 0 0 0 0.01411,-0.0217 c 0,0.02387 -0.0065,0.04557 0,0.03472 a 40.75833,40.75833 0 0 1 4.448652,-6.869369 C 47.86423,68.890991 51.23544,64.372897 52.831529,58.987858 A 32.876621,32.876621 0 0 0 53.949118,46.835444 27.697739,27.697739 0 0 0 54.867059,44.2064 c 2.439163,-9.559176 0.655362,-19.951661 -3.870327,-28.616766 z"
     fill="#fff"
     stroke="#fff"
     stroke-linecap="round"
     stroke-linejoin="round"
     stroke-width="0.42859"
     style="fill:#ede5d8;fill-opacity:1;stroke:#ede5d8;stroke-opacity:1" />
</svg>
