<?xml version="1.0" encoding="UTF-8"?>
<svg id="Layer_2" data-name="Layer 2" xmlns="http://www.w3.org/2000/svg" viewBox="0 0 134.1 17.08">
  <defs>
    <style>
      .cls-1 {
        fill: #744441;
        stroke-width: 0px;
      }
    </style>
  </defs>
  <g id="Camada_1" data-name="Camada 1">
    <g>
      <path class="cls-1" d="M18.12,6.72H3.63s0-6.71,0-6.71H0v17.07h3.63v-6.74h14.49v6.73s3.62,0,3.62,0V0s-3.62,0-3.62,0v6.71Z"/>
      <path class="cls-1" d="M114.42,6.72h-11.4c-.85,0-1.54-.7-1.54-1.55s.69-1.54,1.54-1.54h16.58V0h-16.58c-2.85.01-5.17,2.32-5.17,5.18s2.31,5.17,5.17,5.17h11.4c.86,0,1.56.69,1.56,1.55,0,.86-.7,1.56-1.56,1.56h-16.56s0,3.62,0,3.62h16.57c2.86,0,5.18-2.31,5.18-5.18s-2.32-5.18-5.18-5.18Z"/>
      <path class="cls-1" d="M134.1,0h-3.62v17.07h3.62V0Z"/>
      <path class="cls-1" d="M83.36.01v10.99c0,1.35-1.1,2.45-2.45,2.45h-9.6c-1.35,0-2.45-1.1-2.45-2.45V.17s0-.17,0-.17h-3.62l.02,11.35c0,.78.15,1.52.45,2.2.3.68.72,1.28,1.25,1.8.26.25.54.48.84.69.3.21.63.39.96.54.34.15.69.27,1.06.35.37.08.75.12,1.14.12h10.34c.39,0,.77-.04,1.14-.12.37-.08.72-.2,1.06-.35.34-.15.66-.33.96-.54.3-.21.58-.44.84-.69.53-.52.96-1.12,1.25-1.8.3-.68.45-1.42.45-2.2V0h-3.62Z"/>
      <path class="cls-1" d="M53.92,3.5c-.3-.68-.72-1.28-1.25-1.8-.26-.25-.54-.48-.84-.69-.3-.21-.63-.39-.96-.54-.34-.15-.69-.27-1.06-.35-.37-.08-.75-.12-1.14-.12h-10.34c-.39,0-.77.04-1.14.12-.37.08-.72.2-1.06.35-.33.15-.66.33-.96.54-.3.21-.58.44-.84.69-.53.52-.96,1.12-1.25,1.8-.3.68-.45,1.42-.45,2.2v1.58h-.02v1.66s0,2.22,0,2.22h.02v.21c0,.78.15,1.52.45,2.2.3.68.72,1.28,1.25,1.8.26.25.54.48.84.69.3.21.63.39.96.54.34.15.69.27,1.06.35.37.08.75.12,1.14.12h10.34c.39,0,.77-.04,1.14-.12.37-.08.72-.2,1.06-.35.33-.15.66-.33.96-.54.3-.21.58-.44.84-.69.53-.52.96-1.12,1.25-1.8.3-.68.45-1.42.45-2.2v-5.67c0-.78-.15-1.52-.45-2.2ZM48.29,13.47h-9.6c-1.33,0-2.42-1.08-2.44-2.41v-1.84s0-1.78,0-1.78v-.07s0-1.32,0-1.32c0-1.35,1.1-2.45,2.45-2.45h9.6c1.35,0,2.45,1.09,2.45,2.44v2.87s0,2.1,0,2.1c0,1.35-1.1,2.45-2.45,2.45Z"/>
    </g>
  </g>
</svg>