<?xml version="1.0" encoding="UTF-8"?>
<svg id="Layer_2" data-name="Layer 2" xmlns="http://www.w3.org/2000/svg" viewBox="0 0 39.91 9.23">
  <defs>
    <style>
      .cls-1 {
        fill: #3c2c1a;
        stroke-width: 0px;
      }
    </style>
  </defs>
  <g id="Camada_1" data-name="Camada 1">
    <g>
      <path class="cls-1" d="M14.33,2.81s-.04,0-.06,0c-.49,0-.75.3-.75.66,0,.38.25.56.82.8.71.29,1.13.67,1.13,1.33,0,.15-.02.28-.06.41.37-.34.6-.82.6-1.36,0-.97-.74-1.76-1.69-1.84Z"/>
      <path class="cls-1" d="M14.03,5.02c-.73-.25-1.16-.6-1.2-1.27,0-.14,0-.28.04-.41-.35.36-.56.86-.53,1.39.05.96.84,1.71,1.79,1.74.02,0,.04,0,.06,0,.49-.03.73-.34.71-.7-.02-.38-.28-.55-.86-.76Z"/>
      <path class="cls-1" d="M7.09,4.65c0-.27.05-.51.14-.74.09-.22.22-.42.38-.58.16-.16.35-.29.58-.38.23-.09.47-.14.74-.14s.51.05.74.14c.22.09.42.22.58.38.16.16.29.36.38.58.09.22.14.47.14.74s-.05.51-.14.74c-.09.22-.22.42-.38.58-.16.16-.36.29-.58.38-.22.09-.47.14-.74.14s-.51-.05-.74-.14-.42-.22-.58-.38c-.16-.16-.29-.36-.38-.58-.09-.22-.14-.47-.14-.74ZM7.54,4.65c0,.2.03.38.09.55.06.17.15.32.28.45.12.13.27.23.44.31.17.08.36.11.57.11s.4-.04.57-.11c.17-.08.32-.18.44-.31.12-.13.21-.28.28-.45.06-.17.09-.36.09-.55s-.03-.38-.09-.55c-.06-.17-.15-.32-.28-.45-.12-.13-.27-.23-.44-.31-.17-.08-.36-.11-.57-.11s-.4.04-.57.11c-.17.08-.32.18-.44.31-.12.13-.21.28-.28.45-.06.17-.09.36-.09.55Z"/>
      <path class="cls-1" d="M3.53,3.91c-.09-.22-.22-.42-.38-.58-.16-.16-.36-.29-.58-.38-.22-.09-.47-.14-.74-.14s-.51.05-.74.14c-.23.09-.42.22-.58.38-.02.02-.04.04-.06.06V0h-.45v4.65h0s0,0,0,0c0,.27.05.51.14.74.09.22.22.42.38.58.16.16.35.29.58.38s.47.14.74.14.51-.05.74-.14c.22-.09.42-.22.58-.38.16-.16.29-.36.38-.58.09-.22.14-.47.14-.74s-.05-.51-.14-.74ZM3.12,5.2c-.06.17-.15.32-.28.45-.12.13-.27.23-.44.31-.17.08-.36.11-.57.11s-.4-.04-.57-.11c-.17-.08-.32-.18-.44-.31-.12-.13-.21-.28-.28-.45-.06-.17-.09-.36-.09-.55s.03-.38.09-.55c.06-.17.15-.32.28-.45.12-.13.27-.23.44-.31.17-.08.36-.11.57-.11s.4.04.57.11c.17.08.32.18.44.31.12.13.21.28.28.45.06.17.09.36.09.55s-.03.38-.09.55Z"/>
      <path class="cls-1" d="M21.15,4.65c0-.27-.05-.51-.14-.74-.09-.22-.22-.42-.38-.58-.16-.16-.36-.29-.58-.38-.22-.09-.47-.14-.74-.14s-.51.05-.74.14-.42.22-.58.38c-.16.16-.29.36-.38.58-.09.22-.14.47-.14.74,0,0,0,0,0,0h0v4.58s.45,0,.45,0v-3.33s.04.04.06.06c.16.16.35.29.58.38.23.09.47.14.74.14s.51-.05.74-.14c.22-.09.42-.22.58-.38.16-.16.29-.36.38-.58.09-.22.14-.47.14-.74ZM20.69,4.65c0,.2-.03.38-.09.55-.06.17-.15.32-.28.45-.12.13-.27.23-.44.31-.17.08-.36.11-.57.11s-.4-.04-.57-.11c-.17-.08-.32-.18-.44-.31-.12-.13-.21-.28-.28-.45-.06-.17-.09-.36-.09-.55s.03-.38.09-.55c.06-.17.15-.32.28-.45.12-.13.27-.23.44-.31.17-.08.36-.11.57-.11s.4.04.57.11c.17.08.32.18.44.31.12.13.21.28.28.45.06.17.09.36.09.55Z"/>
      <path class="cls-1" d="M26.29,4.64c0-.26-.05-.5-.14-.73-.09-.22-.22-.42-.38-.58-.16-.16-.36-.29-.58-.38-.22-.09-.47-.14-.74-.14s-.51.05-.74.14-.42.22-.58.38c-.02.02-.04.04-.06.06V.01h-.45v6.47h.45v-1.85c0-.19.03-.37.09-.54.06-.17.15-.32.28-.45.12-.13.27-.23.44-.31.17-.08.36-.11.57-.11s.4.04.57.11c.17.08.32.18.44.31.12.13.21.28.28.45.06.17.09.35.09.54h0v1.85h.45v-1.85h0Z"/>
      <path class="cls-1" d="M31.41,4.65c0-.27-.05-.51-.14-.74-.09-.22-.22-.42-.38-.58-.16-.16-.36-.29-.58-.38-.22-.09-.47-.14-.74-.14s-.51.05-.74.14c-.23.09-.42.22-.58.38-.16.16-.29.36-.38.58-.09.22-.14.47-.14.74s.05.51.14.74c.09.22.22.42.38.58.16.16.35.29.58.38s.47.14.74.14.51-.05.74-.14c.22-.09.42-.22.58-.38.16-.16.29-.36.38-.58,0-.02.01-.04.02-.06h-.48c-.06.12-.13.23-.22.33-.12.13-.27.23-.44.31-.17.08-.36.11-.57.11s-.4-.04-.57-.11c-.17-.08-.32-.18-.44-.31-.12-.13-.21-.28-.28-.45-.04-.11-.06-.21-.08-.33h3.11s.08,0,.08,0c0-.07.01-.15.01-.23ZM28.29,4.09c.06-.17.15-.32.28-.45.12-.13.27-.23.44-.31.17-.08.36-.11.57-.11s.4.04.57.11c.17.08.32.18.44.31.12.13.21.28.28.45.04.11.06.21.08.33h-2.73c.01-.11.04-.22.08-.33Z"/>
      <path class="cls-1" d="M39.91,4.65c0-.27-.05-.51-.14-.74-.09-.22-.22-.42-.38-.58-.16-.16-.36-.29-.58-.38-.22-.09-.47-.14-.74-.14s-.51.05-.74.14c-.23.09-.42.22-.58.38-.16.16-.29.36-.38.58-.09.22-.14.47-.14.74s.05.51.14.74c.09.22.22.42.38.58.16.16.35.29.58.38s.47.14.74.14.51-.05.74-.14c.22-.09.42-.22.58-.38.16-.16.29-.36.38-.58,0-.02.01-.04.02-.06h-.48c-.06.12-.13.23-.22.33-.12.13-.27.23-.44.31-.17.08-.36.11-.57.11s-.4-.04-.57-.11c-.17-.08-.32-.18-.44-.31-.12-.13-.21-.28-.28-.45-.04-.11-.06-.21-.08-.33h3.11s.08,0,.08,0c0-.07.01-.15.01-.23ZM36.79,4.09c.06-.17.15-.32.28-.45.12-.13.27-.23.44-.31.17-.08.36-.11.57-.11s.4.04.57.11c.17.08.32.18.44.31.12.13.21.28.28.45.04.11.06.21.08.33h-2.73c.01-.11.04-.22.08-.33Z"/>
      <path class="cls-1" d="M33.97,2.95c-.23.09-.42.22-.58.38-.02.02-.04.04-.06.06v-.58h-.45v3.67h.45v-1.85c0-.19.03-.37.09-.54.06-.17.15-.32.28-.45.12-.13.27-.23.44-.31.17-.07.35-.11.56-.11v-.41c-.26,0-.5.05-.72.14Z"/>
      <path class="cls-1" d="M5.13,2.91h.45v3.49h-.45v-3.49Z"/>
      <path class="cls-1" d="M5.02.37c0-.1.03-.18.1-.24.07-.07.15-.1.24-.1s.18.03.24.1c.07.07.1.15.1.24s-.03.18-.1.24c-.07.07-.15.1-.24.1s-.18-.03-.24-.1c-.07-.07-.1-.15-.1-.24Z"/>
    </g>
  </g>
</svg>