<?xml version="1.0" encoding="UTF-8"?>
<svg id="Layer_2" data-name="Layer 2" xmlns="http://www.w3.org/2000/svg" viewBox="0 0 177.31 24.96">
  <defs>
    <style>
      .cls-1 {
        fill: #fff;
        stroke-width: 0px;
      }
    </style>
  </defs>
  <g id="Camada_1" data-name="Camada 1">
    <g>
      <g>
        <path class="cls-1" d="M147.28.5h1.99c.28,7.01-.22,13.99-.57,20.98.07,0,.14.01.21.02.09-.67.18-1.34.27-2.01.61-4.26,1.6-8.41,3.62-12.25,1.16-2.22,2.62-4.21,4.7-5.68,1.34-.94,2.8-1.51,4.47-1.53,2.43-.02,4.29.98,5.28,3.16.78,1.74,1.42,3.58,1.8,5.44,1.04,5.12,1.9,10.28,2.83,15.42.02.11,0,.23,0,.38h-2.01c-.3-1.69-.6-3.37-.9-5.04-.65-3.62-1.24-7.25-1.98-10.85-.29-1.41-.75-2.83-1.38-4.13-1.39-2.85-4.41-3.82-7.31-2.48-1.65.77-2.87,2.03-3.89,3.49-2.17,3.09-3.4,6.58-4.09,10.24-.48,2.54-.69,5.13-1.01,7.7-.04.34-.07.69-.12,1.11-.53,0-1.04.03-1.54-.02-.13-.01-.29-.22-.36-.38-.06-.14-.01-.32-.01-.48,0-7.43,0-14.86,0-22.3,0-.25,0-.5,0-.81Z"/>
        <path class="cls-1" d="M112.5,11.72c-.01,6.26-3.97,11.46-9.88,12.85-3.38.79-6.67.41-9.69-1.35-3.51-2.05-5.28-5.25-5.46-9.22-.24-5.36,1.85-9.63,6.6-12.35,5.08-2.91,11.94-1.84,15.66,2.34,1.8,2.02,2.78,4.75,2.78,7.73ZM89.03,11.02c.02,4.96,3.14,9.84,7.66,11.93,7.07,3.28,14.61-1.64,14.25-9.35-.18-3.85-1.88-7.01-4.74-9.57-1.98-1.77-4.29-2.85-6.97-2.97-5.82-.26-10.22,4.06-10.2,9.95Z"/>
        <path class="cls-1" d="M130.1.03c4.68.14,8.52,1.84,10.78,6.14,3.47,6.61.06,16.7-9.06,18.49-2.67.52-5.29.31-7.79-.75-4.28-1.82-6.51-5.17-6.88-9.72-.46-5.81,2.69-11.25,8.3-13.35,1.49-.56,3.04-.84,4.65-.81ZM118.71,11.86c.32,4.59,2.78,8.72,7.7,11.08,7,3.36,14.57-1.63,14.21-9.29-.19-4.01-1.98-7.27-5.03-9.85-1.93-1.64-4.16-2.63-6.71-2.73-5.82-.24-10.21,4.1-10.18,10.79Z"/>
        <path class="cls-1" d="M41.79.05c5.76,0,10.24,3.12,11.68,8.13,1.02,3.57.57,7.05-1.25,10.27-4.29,7.59-13.85,8.02-19.06,3.94-3.12-2.45-4.35-5.79-4.28-9.66.1-5.33,3.44-10.07,8.36-11.89,1.49-.55,3.04-.83,4.53-.79ZM30.5,12.01c.28,4.37,2.73,8.49,7.63,10.9,6.07,2.98,12.82-.31,14.06-6.81.82-4.28-.66-7.95-3.53-11.09-2.13-2.33-4.77-3.79-7.97-3.94-5.81-.27-10.19,4.02-10.19,10.94Z"/>
        <path class="cls-1" d="M82.92,13.15c0,.14.04.3,0,.43-1.02,2.7-2.23,5.28-4.1,7.52-4.09,4.92-11.98,4.99-16.69.9-4.03-3.5-5.13-7.97-3.68-12.97,1.45-4.99,4.92-7.96,10.07-8.83,2.91-.49,5.69-.03,8.17,1.69,1.21.84,2.11,1.94,2.73,3.27.09.2.1.43.15.65-.06.03-.13.06-.19.08-.1-.13-.23-.24-.3-.38-1.73-3.73-5.72-5.44-9.67-4.97-4.86.57-8.12,3.88-8.77,8.73-.41,3.07-.13,6.04,1.27,8.86,3.37,6.77,12.57,7.63,17.05,1.85,1.44-1.85,2.49-3.9,3.32-6.07.11-.29.28-.56.42-.84.07.03.14.05.21.08Z"/>
        <path class="cls-1" d="M25.1,13.15c-.01.17.01.35-.04.5-.95,2.52-2.1,4.93-3.76,7.09-4.16,5.38-12.34,5.41-17.11,1.18C.19,18.37-.84,13.87.65,8.9,2.12,3.99,5.58,1.05,10.68.21c3.3-.54,6.42.02,8.96,2.36.8.73,1.33,1.75,1.96,2.66.11.15.06.41.09.62-.06.02-.12.03-.18.05-.09-.12-.2-.24-.26-.38C19.48,1.72,15.4.11,11.51.54,6.67,1.07,3.22,4.55,2.69,10.1c-.27,2.79.11,5.49,1.38,8.04,3.39,6.76,12.53,7.61,17.01,1.9,1.49-1.9,2.54-4.02,3.42-6.25.1-.25.25-.47.38-.71.07.02.14.05.2.07Z"/>
      </g>
      <path class="cls-1" d="M177.31,23.18c0,.93-.75,1.66-1.69,1.66s-1.66-.73-1.66-1.66.75-1.66,1.66-1.66,1.69.75,1.69,1.66"/>
    </g>
  </g>
</svg>