<?xml version="1.0" encoding="UTF-8"?>
<svg id="Layer_2" data-name="Layer 2" xmlns="http://www.w3.org/2000/svg" viewBox="0 0 106.96 121.54">
  <defs>
    <style>
      .cls-1 {
        fill: #fff;
        stroke-width: 0px;
      }
    </style>
  </defs>
  <g id="Camada_1" data-name="Camada 1">
    <g>
      <path class="cls-1" d="M90.04,98.86c-.54,0-.98-.44-.98-.98v-55.77L53.7,2.46,18.31,43.3v54.59c0,.54-.44.98-.98.98s-.98-.44-.98-.98v-54.95c0-.23.08-.46.24-.64L52.95.34c.18-.21.45-.34.73-.34.27.01.55.12.74.33l36.35,40.76c.16.18.25.41.25.65v56.14c0,.54-.44.98-.98.98Z"/>
      <path class="cls-1" d="M7.02,121.11h.72l-1.6-7.36-2.27,5.91-2.26-5.91-1.61,7.36h.73l1.07-4.91,2.08,5.32,2.07-5.32,1.08,4.91Z"/>
      <path class="cls-1" d="M13.53,118.57l1.26-3.18,1.25,3.18h-2.51ZM17.81,121.11l-3.03-7.38-3.03,7.38h.77l.74-1.88h3.04l.74,1.88h.77Z"/>
      <path class="cls-1" d="M24.39,117.86c.89.21,1.5.45,1.83.71.22.18.34.42.34.7s-.06.52-.18.68c-.31.43-.85.64-1.62.64-1.08,0-1.69-.37-1.82-1.1h-.83c.24,1.17,1.13,1.75,2.65,1.75.68,0,1.25-.14,1.7-.45.55-.35.83-.88.83-1.57,0-.57-.22-1.01-.67-1.31-.31-.22-.82-.43-1.52-.61-.71-.18-1.17-.33-1.38-.45-.47-.23-.7-.56-.69-.98,0-.22.04-.42.14-.56.26-.4.73-.6,1.4-.6.94,0,1.48.31,1.62.89h.77c-.25-.99-1.06-1.5-2.4-1.5-.61,0-1.15.16-1.59.49-.46.32-.69.8-.69,1.45,0,.88.71,1.49,2.11,1.82Z"/>
      <path class="cls-1" d="M38.45,119h-.78c-.24.45-.58.81-1.01,1.08-.42.28-.9.41-1.41.41-.76,0-1.41-.27-1.95-.84-.53-.54-.78-1.2-.78-1.97s.25-1.43.78-1.98c.24-.25.54-.46.87-.61.32-.15.65-.23.97-.23s.59.04.83.11c.74.22,1.3.67,1.68,1.35h.78c-.26-.65-.68-1.18-1.26-1.58-.59-.41-1.23-.61-1.93-.61-.97,0-1.78.36-2.45,1.06-.31.32-.56.71-.73,1.14-.18.43-.26.88-.26,1.36,0,.98.32,1.8.99,2.49.67.71,1.48,1.06,2.45,1.06.7,0,1.34-.21,1.94-.61.58-.41.99-.93,1.26-1.6Z"/>
      <path class="cls-1" d="M49.4,117.64c0,.79-.28,1.46-.83,2.01-.56.56-1.23.83-2.01.83s-1.45-.27-2-.83c-.56-.55-.83-1.22-.83-2.01s.28-1.44.83-2c.55-.55,1.22-.83,2-.83s1.45.28,2.01.83c.55.56.83,1.23.83,2ZM50.11,117.64c0-.49-.1-.94-.28-1.38-.18-.42-.44-.8-.76-1.13-.32-.31-.7-.57-1.13-.75-.44-.18-.89-.28-1.38-.28s-.95.1-1.38.28c-.42.18-.8.44-1.12.75-.33.33-.58.7-.76,1.13-.18.44-.27.89-.27,1.38s.09.95.27,1.38c.18.44.44.81.76,1.14.32.32.7.58,1.12.76.43.18.89.28,1.38.28s.94-.09,1.38-.28c.43-.18.8-.44,1.13-.76.32-.32.58-.7.76-1.14.18-.43.28-.89.28-1.38Z"/>
      <path class="cls-1" d="M55.85,116.02l3.88,5.51v-7.33h-.71v5.07l-3.88-5.51v7.34h.71v-5.09Z"/>
      <path class="cls-1" d="M72.19,121.21c.15,0,.29-.05.42-.16.12-.11.18-.24.18-.41s-.06-.29-.18-.41-.25-.17-.42-.17-.31.06-.42.17c-.12.12-.17.25-.17.41,0,.16.05.29.17.41.12.11.25.16.42.16Z"/>
      <path class="cls-1" d="M85.38,121.11v-6.9h-.71v6.9h.71Z"/>
      <path class="cls-1" d="M91.42,116.02l3.88,5.51v-7.33h-.71v5.07l-3.88-5.51v7.34h.71v-5.09Z"/>
      <path class="cls-1" d="M106.96,119h-.78c-.24.45-.58.81-1.01,1.08-.42.28-.9.41-1.41.41-.76,0-1.41-.27-1.95-.84-.53-.54-.78-1.2-.78-1.97s.25-1.43.78-1.98c.24-.25.54-.46.87-.61.32-.15.65-.23.97-.23s.59.04.83.11c.74.22,1.3.67,1.68,1.35h.78c-.26-.65-.68-1.18-1.26-1.58-.59-.41-1.23-.61-1.93-.61-.97,0-1.78.36-2.45,1.06-.31.32-.56.71-.73,1.14-.18.43-.26.88-.26,1.36,0,.98.32,1.8.99,2.49.67.71,1.48,1.06,2.45,1.06.7,0,1.34-.21,1.94-.61.58-.41.99-.93,1.26-1.6Z"/>
      <g>
        <polygon class="cls-1" points="45.16 51.31 45.15 51.31 45.15 51.33 45.16 51.31"/>
        <path class="cls-1" d="M66.94,56.75s.06-.03.05-.05c0-.03,0-.07-.02-.1-.04-.06-.09-.14-.11-.17-.27-.39-.57-.78-.91-1.13-.05-.05-.25-.24-.22-.22-.04-.03-.08-.07-.12-.1-.15-.13-.31-.24-.48-.36-.13-.09-.26-.18-.4-.26-.06-.03-.12-.07-.18-.1,0,0,0,0,0,0-.27-.14-.55-.28-.83-.41-.15-.07-.29-.13-.44-.19-.33-.19-.67-.38-1.03-.55-.15-.07-.3-.14-.45-.21-.25-.11-.51-.21-.78-.29-.13-.12-.35-.28-.58-.34-.08-.07-.17-.13-.27-.18-.08-.05-.17-.09-.26-.13-.09-.04-.18-.08-.27-.12-.11-.04-.23-.08-.35-.12-.16-.02-.32-.04-.49-.06.06,0,.12-.01.18-.06-.26-.19-.53-.07-.82-.1.43-.18.88.03,1.34-.03-.07-.17-.31-.16-.51-.18.33-.16.57.11.73.28.09.05.23.1.23.07.14-.18-.2-.26-.27-.38.08.09.22.14.31.21.12.05.25.08.38.04-.09-.07-.17-.13-.27-.18-.09-.06-.19-.11-.29-.17.11-.03.28-.07.38-.02.1.05.21.1.3.15.29.15.58.27.95.31-.02-.16-.14-.29-.26-.42.32.12.72.6,1.07.33-.13-.09-.32-.12-.45-.21.14.02.31.19.39,0,.03-.15-.32-.12-.22-.14.37-.11.42.4.72.6.09.05.18.06.25,0-.27-.15-.07-.4-.28-.58.37-.11.27.38.52.38.3,0,.04-.23.02-.35.54.03.44.52.58.79.04.12.08.23.16.31.06.1.13.19.22.26.05.03.11,0,.11-.05,0-.09-.03-.18-.08-.27-.05-.13-.12-.26-.18-.39-.06-.13-.13-.25-.17-.37.11.09.18.2.26.32.07.12.14.24.24.34.07.07.16.13.27.17.09-.28-.17-.47-.36-.68-.07-.07-.12-.13-.16-.21.17,0,.32.03.45.07.13.04.24.11.34.18.37.35.52.8.84,1.19,0-.47-.21-.92-.27-1.4.11.21,0,.55.32.63.02.02.03,0,.04-.02.06.29.32.57.44.85.42-.38-.3-.74-.22-1.16.35.47.54,1.04.83,1.55.06-.03.07-.11.08-.15.03.12.2.26.31.16.13-.14-.1-.25-.12-.35-.08-.12-.17-.23-.24-.33-.06-.07-.1-.14-.14-.21,0,0,.01,0,.02,0,.06.07.12.14.19.21.14.15.28.31.47.42.06.03.14,0,.11-.06-.16-.29-.46-.55-.7-.82-.17-.39-.39-.77-.7-1.1-.16-.17-.43-.38-.72-.47-.1-.09-.21-.17-.33-.24-.1-.06-.21-.12-.32-.18-.11-.06-.22-.11-.33-.16-.14-.06-.28-.11-.43-.16-.85-.15-1.75-.19-2.64-.18-.18,0-.36,0-.54.01-.61-.03-1.15.08-1.68.25,0-.02-.02-.03-.04-.04.07-.03.14-.07.21-.1.07-.03.14-.08.2-.12.25.02.59-.03.86,0-.24-.17-.62-.1-.93-.14.64-.19,1.24-.03,1.87.01.12.01.27.06.4-.01-.23-.03-.51-.06-.74-.08.35-.04.71-.07,1.05-.14.09-.02.17-.03.26-.05.08,0,.17-.05.25-.07-.11-.04-.23-.05-.35-.04.51-.14,1,.17,1.39.39-.33-.33-.83-.59-1.36-.7-.09-.02-.18-.04-.27-.06.11,0,.22,0,.33.01.81.09,1.28.66,2.07.87-.63-.42-1.13-1.03-2.06-1.08-.14,0-.27-.02-.41-.02-.96-.03-1.96.07-2.75.46-.08.04-.15.08-.23.13-.08.05-.17.1-.25.15-.46.17-.93.33-1.4.48.02-.03.02-.06,0-.09.12-.05.24-.09.36-.14.14-.03.28-.07.42-.11.21-.06.44-.09.63-.18.03-.01.04-.05.02-.07-.13-.11-.49.04-.62.08-.33.1-.66.21-.99.3,0,0,0,0,0,0,.05-.04.09-.07.14-.11.1-.04.19-.08.29-.13.34-.06.66-.16.98-.25.18-.05.37-.11.56-.15.15-.03.3-.05.44-.1.06-.02.04-.09-.02-.09-.31-.04-.68.1-.97.19-.24.08-.49.16-.73.24,0-.02,0-.04-.02-.06.03-.01.05-.02.07-.04.08-.02.17-.04.25-.07.19-.05.42-.1.57-.2,0,0,0,0,0,0,.09-.02.19-.04.28-.07.22-.06.44-.11.66-.16.15-.03.3-.05.42-.13.05-.03.01-.08-.03-.09-.2-.03-.4.05-.58.1-.01,0-.03,0-.05.01.31-.09.72-.16.96-.33.03-.02.02-.08-.03-.08-.17,0-.35.04-.52.1.14-.11.27-.22.4-.34.14-.03.29-.06.44-.08.14-.02.28-.04.42-.07.14.04.29.07.43.05-.08-.04-.17-.07-.25-.1h0s.04-.07,0-.08c-.1-.02-.21-.02-.31,0-.1-.02-.2-.04-.29-.07.08-.02.15-.04.22-.07.07.02.14.04.2.06.2.06.45.21.51.1.03-.05,0-.09-.05-.11.05,0,.1.01.15.01,0,0,.01-.06-.02-.09.22.08.45.14.62.24h-.04c.01.11.21.11.32.18-.19-.33-.63-.48-1.06-.59.03,0,.06-.01.09-.02.67.21,1.19.61,1.69.95-.13-.33-.52-.52-.88-.74.6.18.91.6,1.22.98.11-.31-.33-.5-.52-.73.71.23.96.72,1.26,1.19.03.03.1.01.1-.03,0-.23-.21-.42-.36-.62.02,0,.06,0,.1,0,0,0,.02,0,.03,0,.03,0,.07-.01.05-.04-.04-.06-.1-.11-.17-.16-.23-.24-.51-.45-.82-.61,0,0-.01,0-.02-.02.02,0,.04.02.07.03.17.06.35.14.53.19.05.04.1.08.15.11.03.02.08,0,.08-.03-.01-.13-.18-.25-.3-.34-.16-.11-.34-.2-.53-.28-.08-.03-.16-.06-.24-.09-.05-.04-.11-.08-.16-.12.24.04.46.1.69.17.18.06.35.14.55.18.04,0,.07-.03.04-.05-.13-.12-.34-.19-.52-.25-.24-.08-.48-.14-.73-.18-.13-.02-.27-.04-.41-.06-.04-.01-.09-.02-.14-.03.01,0,.03-.01.03-.02.14.01.28.05.43.05-.14-.05-.28-.09-.42-.11,0,0,0-.01,0-.02-.02-.08-.16-.05-.29-.02-.1,0-.21-.01-.31,0-.08,0-.17,0-.25,0-.13,0-.27,0-.4-.01.03-.02.07-.04.1-.06.04,0,.09,0,.14,0,.09,0,.19,0,.29,0,.1,0,.2,0,.3,0-.13-.02-.27-.03-.4-.04-.07,0-.15,0-.22,0,.07-.04.13-.08.19-.13.32.03.73-.03,1.06,0-.3-.23-.77-.13-1.15-.18.79-.25,1.54-.04,2.32.01.14.02.33.08.5-.02-.29-.04-.63-.08-.92-.11.44-.05.88-.1,1.31-.18.11-.02.22-.05.33-.07.1,0,.21-.06.31-.09-.14-.06-.28-.07-.44-.05.63-.19,1.24.23,1.73.52-.41-.44-1.03-.79-1.69-.94-.11-.03-.22-.05-.33-.09.14,0,.27,0,.41.02,1,.12,1.59.89,2.57,1.17-.78-.56-1.41-1.38-2.56-1.45-.17-.01-.34-.02-.51-.03-1.19-.04-2.43.1-3.41.62-.09.06-.19.11-.28.17-.37.23-.73.47-1.09.72-.02,0-.03.01-.03.02-.23.17-.46.34-.67.52t0,0c.13-.22.47-.35.53-.61-.1.09-.22.18-.33.27,0,0,0,0-.01,0-.23.08-.44.21-.66.31-.07.03-.14.07-.21.1,0,0,.02-.01.02-.02.03-.04.07-.07.11-.1,0,0,.02-.01.02-.02.15-.13.33-.25.39-.42-.16.1-.28.21-.42.31-.03-.02-.08-.03-.13,0-.05.03-.1.06-.15.08-.02-.04-.04-.09-.07-.14.15-.07.31-.15.46-.22.53-.24,1.09-.43,1.61-.68.04-.02,0-.06-.03-.05-.57.12-1.09.35-1.6.58-.07.03-.15.07-.23.1h0c.14-.12.28-.24.42-.36.09-.08-.05-.17-.15-.12-.23.11-.45.23-.67.36.04-.03.08-.07.13-.1.04-.03.03-.07.01-.1l.07-.07c.27-.13.57-.23.85-.32.25-.08.51-.15.76-.23.24-.07.52-.13.71-.27.03-.03.02-.08-.04-.07-.25.03-.51.13-.74.2-.21.06-.42.13-.63.19.02-.01.05-.03.07-.05.04-.03.08-.05.12-.08.39-.14.8-.26,1.19-.39.13-.04.27-.09.4-.13.85-.24,1.3-.81,1.85-1.33.09-.09.26-.02.48.06.24.07.51.18.77.13-.18-.1-.41-.17-.59-.22-.2-.05-.39-.1-.57-.16,0-.04.07-.11.07-.11.2,0,.37.06.55.13.24.09.55.28.63.13.03-.07,0-.12-.06-.15.06,0,.12.01.18.01,0,0,.02-.07-.03-.12.28.11.56.18.78.33h-.05c.02.15.27.14.4.24-.29-.54-1.05-.71-1.68-.88-.11-.03-.21-.06-.3-.1.17.01.34.04.5.09.97.25,1.69.85,2.38,1.36-.16-.45-.65-.7-1.09-.99.74.25,1.13.8,1.52,1.32.13-.41-.41-.67-.65-.98.88.3,1.19.97,1.57,1.6.04.04.12.01.12-.04-.01-.31-.26-.57-.45-.83.03,0,.08,0,.12,0,.01,0,.03.01.04.01.03.01.08-.02.07-.05-.05-.08-.13-.15-.21-.21-.28-.32-.63-.59-1.02-.82,0,0-.02-.01-.03-.02.03.01.05.02.08.03.22.09.43.2.66.25.06.05.12.1.19.15.04.03.1,0,.1-.04-.02-.18-.22-.33-.37-.45-.19-.15-.43-.27-.66-.38-.1-.04-.2-.09-.3-.12-.07-.06-.13-.11-.2-.16.29.05.58.14.85.23.22.08.44.19.68.24.05,0,.08-.04.05-.07-.16-.16-.42-.25-.64-.33-.29-.1-.6-.18-.91-.24-.16-.03-.34-.06-.51-.08-.13-.04-.27-.07-.43-.07.31-.04.53.07.83.06-.41-.17-.85-.22-1.28-.21-.1,0-.21,0-.31,0-.31,0-.62-.01-.93-.05.25-.03.49-.04.73-.04.12,0,.24,0,.36,0,.12,0,.24,0,.37,0-.17-.03-.33-.05-.5-.06-.82-.05-1.69.09-2.44.35.06-.3.74-.26.62-.63-.41.3-.9.55-1.36.85.16-.29.59-.47.66-.82-.37.35-.77.65-1.24.95-.1.08-.21.15-.32.22-.11.07-.22.14-.33.21.08-.1.14-.2.18-.31.08-.06.16-.11.23-.17.21-.24.54-.43.65-.73-.29.2-.48.41-.76.59-.03.02-.05.04-.08.06,0-.1-.04-.21-.12-.31-.24.47-.66.84-1.11,1.19.27-.36.65-.66.88-1.03.06-.09.1-.19.14-.29.02-.07-.15-.09-.18-.02-.04.07-.09.14-.14.21-.43,0-.74.16-.99.39.08-.21.03-.45-.08-.64-.11.24-.38.4-.61.58.05-.04.09-.08.13-.13-.23-.07-.6.04-.65.26-.07.09-.13.19-.21.28-.07.09-.16.17-.28.21.04-.09.12-.19.2-.28.08-.1.17-.2.24-.3.15-.16.15-.43,0-.61-.05.08-.1.17-.15.25-.25.42-.5.85-.75,1.27.12-.61.68-1.2.31-1.83-.44.45-.37,1.08-.85,1.53.04-.23.09-.45,0-.7-.06.2-.2.39-.32.58,0-.01,0-.03,0-.04,0-.11-.21-.09-.21.02v.02s-.12-.01-.15.03c0-.07-.01-.14-.02-.21,0-.11,0-.22-.03-.32,0-.02,0-.04,0-.06,0-.02,0-.03-.02-.04-.02-.07-.04-.13-.08-.19-.03-.04-.12-.03-.12.01v.05s-.01-.07-.02-.1c-.03-.11-.23-.09-.22.02.02.12.04.23.07.35,0,.04,0,.09.01.13-.04-.05-.08-.11-.12-.16,0-.02-.01-.05-.02-.07.02-.1-.03-.2-.1-.27-.02-.04-.03-.08-.05-.13,0-.01-.02-.03-.03-.03-.05-.18-.09-.37-.14-.55-.03-.1-.22-.09-.21.02,0,.04.01.09.02.14-.05-.12-.1-.25-.15-.37-.07-.22-.15-.43-.24-.64-.05-.12-.1-.24-.15-.37-.04-.1-.23-.04-.19.06.05.11.09.22.14.33.09.22.17.44.25.66.01.04.03.08.04.13-.16-.2-.31-.41-.45-.62-.17-.33-.38-.66-.52-1-.04-.1-.22-.04-.19.06.14.37.33.72.56,1.06.06.11.11.22.15.34-.01-.01-.03-.02-.04-.04-.11-.14-.22-.29-.31-.44,0,0,0,0,0-.01-.09-.23-.16-.45-.33-.64-.06-.07-.18,0-.15.07.03.08.06.16.1.23-.04-.03-.08-.07-.11-.1,0,0,0-.01-.01-.02-.12-.13-.28-.25-.44-.35-.07-.06-.15-.11-.23-.17-.07-.05-.17.03-.11.09.19.17.36.36.53.55-.07-.07-.15-.13-.23-.19-.23-.19-.48-.36-.8-.45-.1-.06-.21-.12-.32-.17-.14-.07-.29-.13-.44-.2-.15-.06-.3-.12-.45-.19-.15-.1-.38-.17-.49-.1-.49.25.52.14.66.39-.45-.09-1.12-.25-1.5.07-.42.03-.84.05-1.24.02.24.07.42.13.66.16.16.01.33.02.5.02-.47.19-.99.3-1.49.49.74.13,1.42-.12,2.13-.3.03,0,.05.02.07.03-.15.03-.3.07-.44.1-.06.03-.02.11.03.12.29.03.6-.04.9.02.01,0,.02,0,.03,0-.3,0-.61.01-.89.02.55-.01,1.12.06,1.63.21.15.05.3.1.44.15,1.02.53,2.07,1.24,2.65,2.12.06.12.11.24.15.36.02.05.04.1.06.14-.02-.01-.05-.01-.07,0-.08-.14-.16-.27-.24-.42-.16-.3-.42-.53-.66-.79.14.06.2.22.34.28-.62-.62-1.33-1.26-2.21-1.6-.1-.03-.2-.07-.31-.1-.14-.04-.28-.08-.43-.11-.33-.14-.65-.03-.98-.11.27.11.62.12.88.21.13.04.25.09.37.13.18.07.36.14.53.23.07.03.15.07.22.11.18.14.35.27.52.42-.25-.15-.52-.3-.78-.43-.12-.06-.25-.11-.38-.16s-.27-.09-.41-.13c-.46-.11-.94-.17-1.43-.23.26.19.72.13.99.34.13.05.26.1.39.15.13.05.25.1.38.16s.25.11.37.17c.42.24.84.48,1.22.76.14.14.28.29.41.44-.49-.36-.94-.71-1.52-.98-.11-.06-.22-.12-.34-.17-.23-.11-.47-.2-.71-.29-.12-.04-.25-.08-.38-.11-.13-.04-.26-.07-.4-.1.13.04.25.09.37.13.12.05.23.1.34.16.34.16.65.35.95.54.1.06.21.13.31.19.23.15.45.3.64.46.08.07.17.15.24.22.15.16.28.33.38.52.07.08.14.15.21.23,0,0,0,0,0,.01.05.07.11.14.18.2-.01-.01-.03-.02-.04-.03-.08-.06-.16-.12-.24-.18s-.15-.13-.22-.19c-.34-.31-.57-.65-.97-.89.02.16.2.26.27.38-.04-.04-.09-.05-.14-.06,0,.2.13.33.25.46-.04-.04-.18-.1-.14-.02-.01.08.11.17.21.25.09.08.19.15.29.22.18.19.39.37.59.53.06.05.13.1.19.15.06.07.13.13.2.19-.28-.23-.55-.47-.85-.68-.02-.02-.05,0-.03.03.21.24.46.46.72.67-.15-.08-.31-.17-.45-.26-.09-.06-.18.03-.14.09-.26-.18-.49-.38-.72-.59-.04-.04-.13,0-.1.04.14.22.32.41.54.58-.36-.27-.73-.54-1.12-.77-.03-.02-.07.01-.05.04.41.42.96.79,1.49,1.13-.03-.02-.07-.04-.11-.06-.03-.01-.07,0-.05.03.04.05.08.1.14.15-.1-.05-.21.06-.14.13.04.05.08.09.12.13-.2-.16-.4-.31-.61-.45-.05-.03-.12.03-.08.07.17.15.33.3.5.46-.06-.04-.11-.08-.17-.11-.06-.04-.12-.09-.19-.13-.02-.01-.04-.01-.07,0-.13-.14-.26-.28-.39-.43-.39-.44-.93-.77-1.53-1.05-.15-.07-.3-.14-.45-.2-.24-.09-.49-.15-.73-.2-.16-.07-.32-.12-.49-.17-.15-.04-.3-.08-.46-.11-1.08-.14-2.2-.23-3.25-.04-.12.02-.12.12-.03.12.87.05,1.76-.19,2.6.07-.43-.05-.92-.07-1.36.1.65.2,1.42.06,2.08.36,0,.01.02.03.03.04,0,.02.02.04.03.06-.1,0-.21-.02-.32-.03-.27,0-.54-.12-.76.01.21.18.52.1.76.17-.15.02-.37-.12-.42.1t.09.03c.12.01.24.03.35.04.12.01.23.03.35.05,0,.06.01.1.03.12,0,0,0,0,.02.02.08.06.36.2.36.21.01.03.04.06.1.06.11,0,.21,0,.32,0,.18.04.37.09.55.14.07.03.14.07.21.1.07.03.14.07.2.11-.33-.03-.66-.07-.98-.16-.14-.04-.21.13-.07.17.19.06.39.09.59.12.05,0,.09,0,.14.02-.01,0-.02.01-.03.02-.02,0-.03,0-.05,0-.03,0-.07-.01-.1-.02-.05,0-.09,0-.12.03-.24.01-.49.02-.73,0,.19.05.34.1.53.12.06,0,.12,0,.18,0,0,0,.02.01.03.02.02,0,.04.02.07.03-.35.12-.72.19-1.08.32.52.08.99-.04,1.48-.17.01,0,.03,0,.04.01-.03,0-.07.02-.1.02-.04.02-.02.08.02.09.12.01.24,0,.36,0,.01,0,.03.01.04.02-.13,0-.25,0-.37.01.14,0,.28,0,.42.01.06.03.12.06.17.09-.41-.17-.83-.06-1.23-.03.29.27.8.22,1.17.34-.14-.02-.29-.03-.36.07-.02.09.05.12.13.14-.12,0-.22,0-.17.05.16.21.62.12.87.34-.1-.01-.19-.02-.26.05.45.2.85.49,1.3.67-.03,0-.06,0-.1-.01-.06.03-.11.06-.07.11.07.11.23.11.32.2-.01,0-.02,0-.01.02-.71-.34-1.47-1.17-2.37-.78,1.08.06,1.93.75,2.6,1.37-.07-.03-.13-.06-.19-.09-.01-.01-.03-.02-.04-.03-.01,0-.03-.01-.04,0-.24-.13-.46-.26-.79-.27.09.1.19.18.31.25.25.23.56.43.87.62.01.07.08.13.17.17.03.03.05.06.09.09-.08-.04-.16.04-.11.1.03.03.07.07.1.1-.16-.12-.32-.23-.49-.34-.04-.02-.1.02-.06.05.08.07.17.14.25.21-.06-.02-.12-.03-.18-.04-.1-.11-.21-.22-.32-.33-.31-.33-.75-.57-1.23-.78-.12-.05-.24-.1-.36-.15-.2-.07-.39-.11-.59-.15-.13-.05-.26-.09-.39-.12-.12-.03-.24-.06-.37-.09-.87-.1-1.77-.17-2.62-.03-.09.01-.1.09-.02.09.7.04,1.42-.14,2.09.05-.35-.04-.75-.06-1.09.08.53.15,1.15.04,1.68.27,0,0,.01.02.02.03,0,.01.01.03.02.04-.09,0-.17-.01-.26-.02-.21,0-.43-.09-.61,0,.17.14.42.08.61.13-.12.02-.3-.09-.34.08t.08.02c.09,0,.19.02.28.03.1.01.19.02.28.03,0,.04,0,.08.02.09,0,0,0,0,.01.01.07.04.29.15.29.15,0,.03.03.05.08.05.09,0,.17,0,.26,0,.15.03.3.06.44.1.06.03.11.05.17.08.05.03.11.05.16.08-.27-.02-.53-.05-.79-.12-.11-.03-.16.1-.05.13.16.04.31.07.48.09.16.02.32.03.49.05-.05,0-.14.01-.16.03-.12-.03-.24-.05-.36-.07-.11-.01-.19.09-.08.13.3.12.61.19.86.33-.33-.13-.67-.05-.99-.03.24.2.64.16.94.25-.1-.01-.19-.02-.26.02-.45-.12-.92-.19-1.4-.21-.03,0-.05,0-.08,0-.4-.03-.8-.02-1.18.03-.47-.06-.9.08-1.3.29-.11.04-.22.08-.34.13-.2.08-.38.17-.57.26-.1.04-.19.09-.28.15-.42.24-.81.51-1.18.8-.25.14-.45.32-.62.53-.68.61-1.27,1.29-1.83,1.97-.17.21-.34.42-.51.64-.48.47-.88.99-1.24,1.52-.06.08-.11.16-.16.24-.07.11.15.18.22.08.04-.06.08-.12.12-.19.25-.35.59-.67.85-1.02,0,0,.02-.02.03-.03-.02.04-.04.09-.07.13-.17.27-.33.54-.44.82-.04.11.14.18.21.07.17-.28.31-.56.45-.84.12-.18.24-.35.37-.53.05.04.15.04.19-.02.03-.04.06-.09.08-.14,0,0,0,0,0,0l.05-.04c-.06.1-.11.21-.16.32-.2.3-.39.6-.56.91-.04.07.08.17.16.1.52-.39.95-.84,1.33-1.33,0,.03,0,.05-.01.08,0,.02,0,.03,0,.05-.18.28-.35.57-.42.9-.02.11.16.14.22.05.38-.54.71-1.12.94-1.71.07-.07.13-.14.2-.21,0,.07.01.13.02.19.01.08.12.1.18.06-.05.22-.12.45-.19.67-.03.1.18.15.22.05.16-.35.24-.71.28-1.07.02-.08.03-.15.05-.23.04,0,.08-.03.09-.07.03-.15.07-.3.13-.44.03.09.07.18.11.27v.02c-.01.06-.02.12-.03.18,0,.01,0,.03,0,.04-.07.25-.12.5-.16.76-.01.1.16.15.22.05.16-.27.2-.56.2-.86.03-.01.06-.03.07-.07.02-.12.05-.24.07-.36.03-.1.07-.19.11-.28,0,0,0,.02,0,.03-.02.12.21.15.24.03.02-.07.04-.14.06-.21-.03.23-.05.45-.1.68,0,.03,0,.05.02.07-.05.11-.09.22-.12.33l.16-.31c.06.03.16.01.18-.06.05-.19.09-.37.13-.56l.29-.58c-.09.16-.18.32-.28.48.03-.15.05-.29.08-.44.07-.02.13-.03.2-.05,0,0,0,0,0,0,.1-.02.2-.05.3-.07.09-.02.18-.04.27-.06l-.51.63c.07-.2.15-.39.24-.58-.12.21-.22.42-.28.62l-.4.49c.13-.1.24-.2.35-.31-.01.06-.02.12-.03.18.01-.07.03-.13.05-.2.25-.26.45-.56.65-.85.07-.01.13-.03.2-.04-.07.2-.14.4-.2.59,0,.02,0,.04-.01.06.17-.23.32-.47.48-.7.1-.02.2-.03.3-.05-.22.24-.42.52-.63.75l.68-.68c-.15.2-.31.4-.45.61.21-.24.44-.49.68-.73.21-.03.42-.06.63-.08l.17.03s.03-.04.05-.05c.01,0,.03,0,.05,0-.03.02-.06.04-.09.06l.45.08c.06-.06.12-.12.18-.18.04,0,.08,0,.12,0-.1.06-.2.12-.29.19l.16.03-1.43,1.05c.57-.25,1.16-.6,1.59-1.02l.2.03c-.11.11-.22.23-.32.35.13-.11.25-.22.38-.34l.27.05c.11-.12.22-.25.33-.37.03,0,.06,0,.09,0,.03,0,.07,0,.1.01-.03.04-.05.09-.07.14-.1.08-.2.16-.3.25l.14.02c-.08.13-.17.26-.27.39-.12.04-.24.09-.36.14-.09.03-.18.06-.27.09-.16.06-.31.12-.46.19-.08.03-.15.07-.22.11-.34.18-.65.38-.95.6-.2.11-.37.24-.5.39-.54.46-1.02.96-1.47,1.47-.14.16-.28.32-.41.48-.39.35-.71.73-1,1.13-.05.06-.09.12-.13.18-.05.08.12.14.17.06.03-.05.07-.09.1-.14.21-.26.47-.5.69-.76,0,0,.01-.02.02-.03-.02.03-.03.07-.05.1-.14.2-.27.4-.35.62-.03.08.11.14.17.05.13-.21.25-.42.36-.63.1-.13.2-.26.3-.4.04.03.12.03.16-.01.02-.03.04-.07.07-.1,0,0,0,0,0,0,.01,0,.03-.02.04-.03-.05.08-.09.16-.12.24-.16.22-.31.45-.45.68-.03.05.07.12.13.08.42-.29.77-.63,1.07-.99,0,.02,0,.04-.01.06,0,.01,0,.02,0,.03-.15.21-.28.43-.34.67-.02.08.13.1.18.04.31-.4.57-.83.75-1.27.05-.05.11-.1.16-.16,0,.05,0,.1.02.14.01.06.1.07.15.05-.04.17-.09.34-.15.5-.02.07.14.11.18.04.13-.26.2-.53.23-.8.01-.06.03-.11.04-.17.03,0,.07-.02.07-.06.03-.11.06-.22.1-.33.03.07.06.14.09.2v.02s-.02.09-.03.13c0,.01,0,.02,0,.03-.06.18-.1.37-.13.56-.01.07.13.11.18.04.12-.2.16-.42.16-.64.03,0,.05-.03.06-.05.02-.09.04-.18.06-.27.03-.07.06-.14.09-.21,0,0,0,.01,0,.02-.02.09.17.11.19.02.01-.05.03-.11.05-.16-.02.17-.04.34-.08.51,0,.02,0,.03.01.05-.04.08-.07.16-.1.24l.13-.23s.13.01.15-.04c.04-.14.07-.28.1-.42l.24-.43c-.07.12-.14.24-.22.36.02-.11.04-.22.07-.33.05-.01.11-.03.16-.04h0s0,0,0,0c.08-.02.16-.03.24-.05.07-.01.14-.03.21-.04l-.41.47c.06-.15.13-.29.2-.43-.1.15-.18.31-.23.46l-.32.37c.1-.07.2-.15.28-.24,0,.03-.01.06-.02.09l-.27.18c.55-.22,1.12-.55,1.47-.95-.12.14-.24.29-.35.43.17-.18.35-.36.55-.54.17-.02.34-.04.51-.06h.03c-.03.05-.05.1-.08.15-.32.22-.62.45-.82.7.24-.19.52-.39.78-.61-.12.2-.25.39-.41.58.25-.17.52-.33.73-.51.09-.07.18-.14.26-.21-.05.03-.1.07-.15.1.03-.04.07-.08.1-.12h.06c.05-.03.1-.08.14-.13.03,0,.06,0,.1,0-.08.04-.16.09-.23.14l.28.04-.84.78c-.09.04-.17.08-.26.13-.1.05-.19.11-.29.17-1.01.78-1.95,1.63-2.75,2.54-.07.09-.14.17-.21.26-.03.07-.08.14-.13.21-.05.07-.1.14-.16.21-.41.52-.93.96-1.18,1.54.62-.32.97-.83,1.29-1.36.06-.07.12-.14.19-.2-.02.06-.05.13-.08.19-.03.07-.06.13-.08.19-.1.28-.23.57-.19.87.23-.24.29-.49.51-.74.03-.06.07-.11.1-.17.03-.05.07-.11.1-.17.04.08-.07.26.04.23.39-.15.34-.58.65-.81.06.12-.05.23.05.36.04-.14.06-.32.11-.46.02-.07.04-.15.07-.22.03-.07.07-.14.12-.21.03.17-.07.35.15.49-.07-.24,0-.53.39-.59-.02.18-.13.36-.11.56.02.04.14.05.16.02.1-.69.42-1.23.88-1.8-.12.49-.57.97-.44,1.48.46-.56.74-1.19.95-1.84.02-.03.1-.09.18-.09-.17.51-.49.99-.5,1.52.46-.5.41-1.14.7-1.71.04.08.09.06.15.03.08-.08.15-.17.22-.25.03-.03.05-.06.07-.09.02,0,.03-.01.05-.02-.03.08-.07.16-.1.24l-.12.08s.08-.05.12-.07c-.04.1-.09.2-.14.3-.07.22-.31.42-.25.69.14-.09.22-.21.27-.33,0,.03.02.05.06.07,0,0,0,0,0,0-.12.13-.24.26-.36.38-.04-.01-.09,0-.12.03-.19.24-.38.47-.57.7-.03,0-.07,0-.09.03-.1.09-.2.18-.3.28-.1.1-.19.19-.27.29-.88,1.29-1.67,2.66-2.25,4.05-.05.13-.1.26-.15.4,0,.1-.03.21-.06.31-.03.1-.07.21-.11.31-.27.78-.71,1.5-.78,2.32.61-.59.81-1.34.98-2.12.04-.11.09-.22.15-.32,0,.09,0,.18-.01.27,0,.09-.01.18-.02.28,0,.38-.04.8.14,1.18.17-.37.14-.72.31-1.1.02-.08.04-.16.06-.24.02-.08.03-.16.05-.24.08.09.03.35.14.29.41-.3.17-.84.44-1.23.12.13.04.31.21.45,0-.2-.06-.44-.05-.63,0-.1,0-.21,0-.31s.02-.21.06-.31c.11.21.05.47.38.59-.19-.3-.21-.69.22-.87.05.24,0,.51.1.75.04.04.19.02.2-.01-.16-.92,0-1.72.31-2.58.06.67-.28,1.41.09,2.04.32-.86.4-1.74.38-2.64,0-.04.08-.15.18-.17,0,.7-.18,1.42.03,2.11.35-.77.02-1.6.13-2.4.08.09.14.06.19,0,.06-.13.11-.26.16-.38.05-.13.09-.26.14-.39.04-.06.09-.12.13-.17,0,.18-.01.36-.02.53,0,0,0,0,0,0,0-.07-.01-.15-.03-.23-.01-.05-.11-.05-.11,0,0,.14-.02.28-.03.43-.01.14-.02.28-.04.43.01.3-.2.63-.02.96.08-.09.13-.2.16-.3,0,.06.02.13.05.19.09-.1.13-.23.18-.35,0-.02.02-.03.02-.06.03-.08.06-.15.1-.22.04.12.04.23.03.35-.04.05-.08.1-.12.16-.05.06.01.12.08.13-.02.09-.04.17-.06.26.02.09.04.18.06.27,0,.04,0,.07,0,.11-.05.05-.1.09-.15.14-.09.09-.17.18-.25.28-.06.07.01.17.13.14.02,0,.05-.01.07-.02-.02.04-.04.08-.06.13-.04.09-.07.17-.08.27.05-.02.09-.04.12-.07,0,.02.02.03.04.06.03.02.07.02.1.01-.02.15-.04.31-.07.46-.16.28-.3.55-.15.87.03-.03.05-.07.07-.11,0,.22.03.44.12.66.09-.42.08-.86.12-1.29.02-.04.03-.07.05-.11.12.41-.01.82-.09,1.2.03.12.05.24.08.36.03.38-.19.69-.33,1.03-.05.11-.08.23-.09.36.19-.07.23-.19.26-.31.02-.12.02-.25.12-.35.03.09.03.18.02.27-.01.09-.04.18-.07.28-.09.88-.37,1.78-.05,2.64.18-.91.03-1.87.35-2.76.11.44-.13.88.14,1.3.04.04.14.02.15-.02.08-.42-.12-.87,0-1.31.02-.11.04-.21.07-.32.03-.13.06-.26.08-.38-.01.66-.11,1.31.07,1.96.17-.84.09-1.67.15-2.48,0-.1.02-.21.03-.32.01-.1.03-.21.05-.31.02-.09.04-.18.06-.28.02-.09.05-.18.08-.27.01-.05.03-.1.05-.14,0,.02.03.03.06.03-.03.15-.05.3-.07.45-.07.2-.05.39-.07.59,0-.04,0-.07-.02-.1-.03.1-.06.2-.08.3-.02.1-.03.21-.04.31.07.67-.11,1.31.1,1.96-.11-.68.17-1.34.21-2.05,0-.05,0-.09,0-.14,0,0,0,0,.01,0,0,.04,0,.08,0,.13.21.77-.19,1.54,0,2.3.07-.14.13-.28.18-.42.14,2.66.07,5.28.12,7.95,0,0-.08,0-.11-.05.11.35.11.79.18,1.21.03.19.07.38.1.58.02.1.03.2.05.3.02.28.05.56.07.84.02.28.04.57.06.85,0,.09.01.18.02.27,0,.08-.02.15-.03.23-.03.25-.06.5-.03.79.26,1.86.27,3.77.25,5.67,0,.38,0,.76-.01,1.14.02,3.12.02,6.28.45,9.45,1-.03,2.2-.31,2.34-.86.88-2.01-.29-4.31-.42-6.68-.03-.44-.07-.86-.1-1.28-.17-2.04-.26-4.05-.43-6.1-.02-.32-.04-.64-.06-.96-.15-2.14-.3-4.28-.51-6.4-.03-.33-.07-.65-.1-.98-.28-3.22-.54-6.43-.58-9.69.02.15.04.3.16.43,0,0,.11-.06.12-.1-.03.42-.12.84,0,1.25.22-.36.14-.72.22-1.1,0,.51-.11,1.04.15,1.5,0-.7.09-1.43-.07-2.11.04.04.03.08.07.13.16-.06.04-.19.05-.27.03.08.12.13.18.06,0-.04.03-.1.04-.15.05.22.03.47.15.68.2-.25.05-.5.05-.72-.02-.1-.03-.2-.06-.3-.02-.09-.04-.18-.06-.28.06.1.12.21.18.32.11.11.14.23.26.36-.07-.17-.08-.36-.15-.52-.06-.15-.13-.29-.21-.43.06.1.11.2.16.29.05.1.11.2.16.3.1.21.27.38.32.63,0,0,0,0,.01.01-.09.32-.18.65-.25.98,0,.04.02.06.06.07v.07c-.03.06-.05.11-.07.17-.03,0-.05.01-.05.04-.01.29-.17.56-.18.85,0,.07.12.08.14.02.04-.2.1-.4.16-.59.02,0,.03-.02.03-.03l.05-.23s0-.01,0-.02c.02,0,.05,0,.06-.03.11-.16.17-.33.24-.5,0,.07,0,.14-.02.21,0,.04.03.06.07.06,0,0,.01,0,.02,0,.01.08.03.16.06.23.01.03.07.02.07,0,.03-.13,0-.27-.02-.4.02-.07.04-.14.07-.21.05-.14.11-.29.17-.43.01.06.03.12.03.19,0,.01,0,.03,0,.04-.06.1-.1.22-.13.33,0,.03.03.06.06.07-.02.05-.03.1-.05.15,0,.01,0,.03,0,.04-.14.4-.27.82-.11,1.22.16-.19.05-.43.14-.63.26.47-.14,1,.24,1.45.03-.14.03-.32.02-.46.22.29.15.6.29.88.07.07.09.15.14.21.01.02.07,0,.06-.01,0-.17-.05-.32-.02-.47,0-.11,0-.22,0-.33,0,.07.02.14.03.22,0,.03.08.04.09,0,.04-.27.07-.53.14-.8.04-.14.09-.27.14-.39.05-.09.09-.19.15-.29,0,.02,0,.04,0,.06,0,0,.05,0,.1.01-.03.15-.01.31-.14.45-.05.15-.1.31-.15.46,0,0,0,.02,0,.02,0,.01-.01.03-.02.05-.14.35-.35.76-.29,1.13,0,.03.06.04.08,0,.06-.16.09-.32.13-.48.06-.21.13-.42.21-.62.03,0,.07,0,.09-.03.07-.09.14-.18.21-.28,0,.03,0,.06,0,.08,0,.04.02.07.05.08-.07.18-.13.36-.17.55,0,.04.03.08.07.09-.09.2-.17.39-.26.59-.14.33-.36.73-.32,1.08,0,.04.07.04.09,0,.09-.16.12-.34.17-.5.07-.23.17-.45.25-.67.09-.22.18-.44.26-.66.13-.24.27-.47.45-.69,0,.04,0,.07-.01.11-.21.37-.42.73-.5,1.13-.01.05.03.09.08.1,0,.02-.02.04-.02.07-.2.24-.33.5-.4.79,0,.05.03.08.08.09-.02.07-.04.13-.06.2,0,.02,0,.03,0,.05-.17.53-.33,1.1-.14,1.63.2-.25.07-.58.17-.84.32.63-.17,1.34.31,1.95.04-.19.03-.42.02-.62.27.38.19.8.36,1.18.08.09.11.21.17.28.02.02.08.02.08-.01,0-.24-.07-.44-.03-.63-.02-.39,0-.76.03-1.12,0-.02.01-.04.02-.07.02,0,.04-.02.04-.05l.06-.31s0-.02,0-.03c.03,0,.06,0,.08-.04.14-.21.21-.45.3-.67,0,.09,0,.19-.02.28,0,.06.06.09.12.08.01.11.04.22.08.32.01.04.08.03.09,0,.04-.21,0-.43-.04-.64.07-.3.17-.59.28-.88,0,.02.01.03.03.04.02.11.04.22.06.32.03.17.03.35.09.52.01.04.08.03.09,0,.07-.28,0-.59-.07-.87,0,0,0-.02,0-.03,0-.28-.02-.57-.03-.85l.07-.21s.03.09.05.14c.02.06.12.06.16.02.07.21.15.43.28.61.03.04.1,0,.1-.03-.02-.17-.1-.33-.15-.49-.08-.22-.15-.45-.22-.67,0-.02,0-.03-.01-.04,0-.05,0-.1-.01-.14,0,0,0-.02,0-.03.03.09.07.17.09.26.02.08.15.09.19.03.1.23.23.45.41.64.03.03.09,0,.08-.03-.12-.35-.32-.67-.47-1.01.05,0,.1-.04.09-.09,0,0,0-.01,0-.02h0c-.05-.17-.12-.35-.19-.52.02-.07.03-.14.04-.21.01-.07-.09-.1-.15-.07-.01-.03-.02-.07-.03-.1.05,0,.1-.03.1-.09-.01-.17-.03-.35-.08-.51.31.63.6,1.26.8,1.93.02.08.18.07.17-.02-.14-.95-.7-1.83-1.16-2.73.4.71.87,1.44,1.54,2.01.06.05.16,0,.11-.07-.31-.4-.65-.8-.93-1.22-.14-.2-.27-.4-.39-.6.03-.02.05-.04.05-.08-.41-1.81-1.83-3.37-2.52-5.11-.01-.03-.04-.03-.06-.03-.05-.1-.11-.2-.16-.3-.1-.18-.21-.37-.32-.56.01,0,.02,0,.03-.01.04-.1-.06-.22-.12-.31,0,0,0,0,0,0h0c.19.15.4.3.59.45.06.05.15,0,.15-.05,0,.01.01.02.02.03.03.03.11.03.12,0,.01-.05,0-.11-.03-.17.28.28.61.54.84.86.04.06.16.02.14-.04,0,0,0-.01,0-.02.02,0,.03-.02.03-.04,0-.04,0-.08-.02-.13.13.15.25.3.37.46.05.06.17,0,.13-.06,0,0-.01-.02-.02-.03,0,0,0-.01,0-.02-.06-.1-.14-.19-.21-.29-.01-.02-.04-.03-.06-.02-.14-.16-.28-.31-.45-.45-.02-.02-.05-.02-.08-.01-.01-.01-.03-.03-.04-.04,0-.01,0-.03-.02-.05-.01-.01-.03-.03-.04-.04.16.09.32.18.47.28,0,.01.02.03.02.04.02.03.06.04.09.04.4.29.71.64.8,1.08.07-.28,0-.52-.17-.73.02,0,.03-.02.03-.04,0-.02,0-.04-.01-.07.1.11.21.21.31.32-.06-.06-.09-.12-.07-.2,0,0,0,0,.01,0,.2.14.16.34.28.49.01-.07.03-.12.02-.19.02.03.06.06.09.08,0,0,0,0,0,0,0,0,.01.02.02.03.01.02.03.03.06.03.02.06.04.11.07.17.04-.2.13-.42-.03-.61.2.1.15.43.33.33.03.02.05.05.08.07.04.03.09.03.13.02.03.03.06.05.12.06.02.04.05.08.08.12.04.06.2.03.16-.03-.1-.14-.15-.28-.2-.42.04.03.07.06.11.09.04.03.07.06.11.09.02.02.03.04.04.06,0,0,0,.01,0,.02.02.06.03.12.03.18.03.02.06.03.08.05,0,.02,0,.04,0,.06,0,.02.03.04.06.04,0,0,.15.12.21.16,0,0,.01,0,.02,0,.01,0,.04,0,.08.01.02.01.03.02.05.04.04.09.07.18.1.27,0,.02.03.03.06.04.03.07.06.14.1.21.04,0,.12.01.16.02.02-.03.02-.06.01-.09h.01c.06.14.08.29.31.36-.02-.29-.28-.52-.35-.79,0,0,0,0,.02,0,0,0,0,0,0,0,.16.24.33.47.48.7.02.03.07.04.1.03.09.17.18.35.32.5.28-.2-.06-.45-.1-.65.26.29.38.63.42.96,0,.03.08.02.09-.01.06-.82-.67-1.55-1.12-2.26.63.44,1.14.96,1.26,1.66.23-.97-.79-1.54-1.63-2.11-.08-.08-.17-.16-.26-.24.15.08.3.17.49.19-.02-.03-.04-.07-.07-.09.66.45,1.15,1,1.65,1.58-.08-.09-.11-.17-.09-.28.26.19.21.45.36.67.02-.09.03-.16.02-.25.02.04.07.08.1.11.02-.11.04-.19.01-.31.06.2.07.4.18.61.05-.27.16-.56-.03-.82.27.15.17.64.46.41.17-.1.01-.31,0-.47.2.22-.05.73.5.72-.04-.28-.25-.5-.24-.77.21.18.37.4.47.66.03.08.04.16.04.25.11.06.21.14.29.22.09.08.17.16.26.21.22.14.25.5.4.75.05,0,.14.02.19.03.07-.11-.05-.24-.13-.37.25.23.13.6.55.73-.02-.39-.35-.71-.43-1.07.66.43.71,1.14,1.15,1.66.35-.27-.08-.59-.12-.87.32.39.48.84.52,1.28,0,.04.1.03.11-.01.07-.93-.58-1.78-1.11-2.59ZM64.32,51.22c.02.11.24-.01.21.14-.12-.13-.39-.05-.52-.22.1.03.21.05.31.08ZM63.57,51.06s-.08-.02-.12-.03c.03,0,.14-.08.12.03ZM62.64,50.95s.04,0,.07-.01c.03,0,.06.01.08.02-.05,0-.1,0-.15,0ZM62.71,50.29c-.12.03-.24.06-.35.09,0-.02,0-.03,0-.05.12-.01.24-.02.36-.03ZM62.15,50.34c-.12.02-.17.02-.29.01.1,0,.19,0,.29-.01ZM61.54,51.16c-.06-.03-.11-.05-.17-.08.14-.04.12.02.17.08ZM61.11,51.33c-.06-.03-.12-.07-.17-.1-.08-.05-.16-.14-.26-.15.31-.08.32.16.43.25ZM60.79,50.94c-.08,0-.15,0-.23,0,.08-.02.14-.07.23,0ZM62.05,48.98c.11.02.22.05.33.07-.09,0-.18-.01-.26-.02-.25,0-.5.02-.74,0-.11,0-.22-.02-.33-.03.31-.12.67-.1,1.01-.04ZM61.94,49.21c-.24.21-.52.03-.8.08-.1-.01-.2-.02-.3-.04.37,0,.72.03,1.1-.04ZM58.85,49.81s.04,0,.06,0c.01,0,.02,0,.03-.01.07-.01.14-.03.21-.04-.14.07-.29.12-.44.17.04-.04.09-.08.13-.11ZM63.33,47.62s-.08-.04-.12-.06c-.03.01-.07-.02-.11-.06.08,0,.16.08.24.12ZM64.58,45.32c.14.03.27.06.41.1-.11-.01-.22-.02-.32-.02-.32,0-.62.03-.92.01-.14,0-.28-.02-.41-.04.39-.16.83-.13,1.25-.05ZM64.45,45.62c-.3.27-.65.04-.99.11-.12-.01-.25-.03-.38-.05.46-.01.9.04,1.36-.06ZM61.66,45.3c-.05.03-.1.06-.15.09-.05.01-.11.03-.16.05.1-.05.2-.1.31-.14ZM61.78,46.93c.12.03.24.06.36.09-.17-.03-.34-.05-.52-.06.04,0,.1-.02.15-.03ZM61.55,46.89c.06,0,.11.02.17.03-.04,0-.09,0-.15.02-.11.01-.23.02-.35,0,.08-.02.17-.03.26-.05.02,0,.04,0,.06,0ZM61.13,47.08s-.05,0-.08,0h0s-.05-.02-.08-.03c.05,0,.1,0,.16.02ZM60.99,46.35s-.04.02-.07.03c-.05,0-.1,0-.15.01.07-.01.14-.03.21-.04ZM60.71,47.58s-.06.01-.09.02c-.06.01-.12.02-.17.03.02-.01.03-.03.05-.04.05-.04.12-.03.22,0ZM60.53,47.06s.03,0,.05.01c-.1.02-.18.04-.26.03.08-.02.13-.04.21-.05ZM60.09,47.22c-.08.01-.15.03-.23.04.08-.03.15-.06.23-.04ZM59.88,47.64c.1-.02.2-.04.31-.06-.02.01-.04.03-.06.04-.05.05-.12.09-.18.13-.03,0-.07.02-.1.02-.14.03-.28.07-.43.11.07-.06.13-.13.21-.19.09-.02.17-.03.26-.05ZM59.47,47.52c.05-.02.11-.03.17-.03-.04.03-.09.05-.13.08-.04,0-.07.01-.11.02.03-.02.05-.05.07-.07ZM59.82,47.93s.04-.01.07-.02c.07-.01.13-.03.2-.04-.16.14-.35.25-.56.37-.09.05-.18.09-.28.14-.11.03-.22.07-.33.1.01-.02,0-.05-.02-.07.33-.14.63-.3.92-.47ZM66.16,43.49s-.1-.05-.15-.07c-.03.01-.09-.03-.14-.08.09.01.2.11.29.16ZM64.7,42.69c-.21-.04-.42-.07-.64-.08.05-.01.12-.03.19-.04.15.04.3.08.45.12ZM64.63,42.18c-.13,0-.26,0-.39.02-.03,0-.07-.02-.11-.03.18-.02.34-.01.5.01ZM63.96,42.5c.07.01.14.03.21.05-.05,0-.11,0-.18.02-.14.02-.28.03-.43.01.1-.03.21-.05.32-.07.03,0,.05,0,.08-.01ZM63.6,42.19s.01,0,.02,0c.03.01.07.02.1.03-.02,0-.04,0-.06,0-.04-.01-.07-.02-.11-.03.02,0,.03,0,.05,0ZM63.01,42.81s.02.02.03.03c-.04,0-.09,0-.14,0,.03,0,.07-.02.1-.03ZM49.67,39.82c-.82-.14-1.44.25-2.2.35.35-.1.71-.27,1.07-.38.39-.01.79-.04,1.19-.03.14.05.28.09.42.12.19.05.39.08.59.09h0c.07.03.14.06.21.09.04.03.08.05.12.08-.08-.03-.17-.07-.27-.09-.11-.03-.21-.07-.32-.09-.2-.05-.39-.08-.59-.09-.07-.02-.14-.03-.22-.05ZM50.54,40.42c-.12-.03-.25-.06-.38-.09.14-.03.3-.04.46-.03.02,0,.03.01.05.02.75.42,1.48.97,2.08,1.57-.62-.61-1.37-1.14-2.22-1.47ZM51.66,41.72s.01,0,.02.01c.15.08.28.17.41.27.04.04.09.08.13.12,0,.03,0,.05.02.08-.18-.18-.36-.35-.58-.48ZM52.33,43s-.03-.03-.04-.05c0,0-.02-.02-.02-.03.06.03.13.06.12.12-.02-.03-.04-.04-.05-.04ZM52.25,42.75s-.05.07-.05.09c-.03-.04-.07-.08-.1-.12-.06-.06-.12-.14-.2-.21-.07-.07-.14-.15-.21-.22.1.09.2.17.3.26s.21.16.32.24c.04.03.08.06.13.09,0,.06.02.11.02.16-.08-.09-.16-.19-.21-.29ZM52.23,43.61c-.1-.09-.19-.19-.28-.29-.09-.1-.17-.2-.26-.3.09.09.19.17.29.25.1.08.2.16.3.23.13.1.26.19.39.28.03.05.05.1.08.15-.18-.11-.35-.22-.53-.33ZM47.33,42.82c-.05-.02-.11-.03-.16-.05.06.01.12.03.18.04,0,0-.01,0-.02.01ZM48.26,45.14c.2-.05.39-.13.59-.2.04.01.07.03.11.04-.23.06-.46.13-.71.16ZM50.59,44.43s.02.02.03.03c-.01,0-.03,0-.04,0-.03-.02-.05-.04-.08-.07.03.01.06.03.09.04ZM49.78,45.5c-.16-.04-.31-.08-.46-.11.23,0,.46.08.69.15-.07-.01-.15-.03-.22-.04,0,0,0,0,0,0ZM50.28,45.9c-.12-.04-.24-.08-.35-.12.28.03.55.18.84.27-.16-.04-.34-.08-.48-.15ZM51.35,47.94s.08.03.12.04c.07.07.16.14.24.2-.12-.08-.24-.17-.36-.25ZM51.83,47.78s-.08-.06-.12-.1c.03.02.08.05.12.08,0,0,0,0,0,.01ZM48.15,47.12s-.09-.03-.13-.04c.05,0,.1.02.14.03,0,0,0,0-.01,0ZM50,48.67q.05-.01.07.03s-.05-.02-.07-.03ZM42.5,51.86h0s0,.01-.01.02c0,0,0,0,0,0-.07.07-.15.14-.23.21.1-.11.21-.22.32-.33-.02.03-.05.06-.07.09ZM45.92,53.62s0,0,0,.01,0,0,0,0c-.06.05-.12.11-.19.16.09-.08.17-.16.26-.24-.02.02-.04.04-.06.07ZM46.67,57.27c-.03.07-.07.14-.11.21,0-.28.11-.52.35-.72-.09.16-.13.36-.24.51ZM47.13,56.99c-.04.09-.09.18-.16.28.02-.1.06-.19.1-.28.05-.08.1-.16.15-.24,0,.09-.06.17-.1.24ZM47.3,56.12s-.06.03-.08.04c.04-.04.09-.07.13-.11-.02.02-.03.05-.05.07ZM48.17,56.05c-.05.07-.1.12-.14.17.09-.17.12-.28.3-.38-.05.08-.08.13-.16.21ZM49.43,55.27c-.04.11-.09.22-.15.33-.05.1-.09.18-.15.28.21-.36.14-.83.5-1.15-.09.16-.13.36-.19.53ZM46.88,61.62c-.01.09-.03.2-.05.3-.11-.36-.09-.7.13-1.03-.04.23,0,.51-.08.73ZM47.16,59.96s-.06.05-.08.07c.03-.06.07-.12.11-.18,0,.03-.02.07-.03.1ZM47.31,61.12c-.02.13-.04.26-.07.4-.02-.14-.01-.27,0-.39.02-.12.06-.24.08-.35.03.12,0,.24-.01.34ZM48.17,59.62c-.03.1-.07.18-.1.25.04-.24.02-.4.2-.57-.02.11-.04.19-.1.32ZM49.35,58.26c0,.15-.02.31-.04.47-.02.15-.04.26-.07.41.1-.53-.17-1.12.12-1.62-.05.23,0,.51-.01.74ZM49.81,56.41s-.03-.01-.05-.01c0-.01.02-.02.03-.03,0,0,0,0,.01,0,.02-.02.04-.03.07-.05-.02.03-.03.07-.05.1ZM50.42,57.39c0-.07,0-.14,0-.2.02.06.01.13,0,.2ZM50.48,54.82s.03-.1.05-.14c0,.04-.02.1-.05.14ZM50.69,59.26s-.06.05-.09.07c.01-.06.02-.12.05-.18.02,0,.03-.01.05-.02,0,.03.01.07.01.1,0,0-.02.02-.02.03ZM53.1,44.62s-.03-.02-.05-.02c-.06-.05-.11-.09-.17-.14.07.06.14.11.22.16ZM51.9,44.36c.22.15.46.28.72.41.06.06.12.12.18.18-.14-.09-.29-.17-.43-.27-.16-.1-.31-.21-.47-.32ZM52.06,53.4s.03-.07.04-.11c.01-.01.03-.03.04-.04h.05c-.02.06-.04.1-.07.15-.02.03-.05.09-.07.14,0,0,0,0,0,0-.01,0-.02.02-.03.03.02-.06.03-.12.05-.18ZM52.01,58.53s.04-.04.06-.06c0,0,0,.01,0,.02-.02.02-.04.05-.06.07v-.03ZM51.78,53.46s0,0,0,0l-.18.13c.02-.05.03-.11.05-.16.03.03.09.05.14.03ZM51.81,54.59s-.02.05-.03.07c-.01,0-.02,0-.03.01,0,0,0-.01,0-.02.02-.02.04-.05.06-.07ZM51.52,53.95s-.04,0-.06,0c0,0,0-.02,0-.03.03-.07.05-.13.07-.2.05-.03.1-.07.15-.1-.06.11-.11.21-.17.32,0,0,0,0-.01,0ZM51.41,53.73l-.13.09s.02-.07.03-.11c.04-.03.08-.06.11-.09-.03.02-.07.03-.1.05,0-.01,0-.03.01-.04.07-.06.14-.11.19-.17-.04.09-.08.18-.13.27ZM51.42,55.27s0,.07-.01.1c-.05.05-.1.1-.15.14,0-.08,0-.16,0-.24.04.04.13.04.17,0ZM51.46,53.46s.02-.02.03-.04c.01,0,.02-.02.03-.03.02-.01.05-.03.07-.04,0,0,0,0-.01.01,0,0,0,.01,0,.02l-.11.08ZM51.69,53.29s0,0,.01,0c-.02.02-.03.05-.04.07,0,0-.01,0-.02-.01.01-.01.03-.03.04-.04l-.06.04s-.02,0-.02,0c.03-.02.06-.03.09-.05ZM51.55,51.41s.05.03.07.05c-.02,0-.03.02-.05.03-.03,0-.05-.01-.08-.02.02-.02.04-.04.06-.06ZM50.52,49.42c-.1-.03-.19-.06-.28-.09.23.02.45.13.67.2-.13-.03-.27-.06-.39-.11ZM50.59,51.04c-.19.09-.37.19-.54.29.05-.05.1-.1.15-.15.08-.06.16-.13.24-.19.05.02.1.04.15.05ZM50.78,49.07s-.09-.04-.1-.08c.03.03.07.05.1.08ZM49.75,49.04c.26,0,.52.12.78.17-.15-.04-.32,0-.41-.09-.13-.03-.25-.06-.37-.08ZM48.66,53.27c-.02.06-.05.12-.07.18h-.01s-.56.39-.56.39c0-.03.02-.07.03-.1.2-.2.36-.42.52-.63.05-.01.11-.02.16-.03-.02.06-.04.12-.07.18-.02.02-.04.05-.06.07l.06-.05ZM48.69,53.39c.09-.12.17-.23.26-.35.11-.02.22-.04.34-.05l-.59.4ZM49.74,51.51s-.05,0-.08,0c-.22-.03-.42,0-.62.05.15-.11.31-.21.46-.32l.1.02c.16-.12.32-.24.47-.37.05,0,.11.02.16.03-.2.11-.39.23-.59.34l.29.05-.15.15s-.04.03-.06.04ZM50.67,51.5s-.03,0-.04,0c.03-.02.05-.03.08-.05h-.03s-.04.03-.07.05c-.25-.02-.49-.02-.74,0,.06-.05.11-.11.16-.16l.64.11c.12-.09.23-.19.33-.3.05.02.11.04.16.06-.16.07-.31.16-.46.24l.1.02-.05.04s-.05,0-.08,0ZM51.17,51.53h-.02c-.06,0-.12,0-.18,0,.01,0,.02-.01.03-.02l.16.03ZM50.24,54.02s-.03-.01-.04-.02c0,0,.02-.01.03-.02,0,0,0,0,.01,0,.02,0,.04-.02.06-.03-.02.02-.04.05-.07.07ZM50,53.78s-.01,0-.02,0c.28-.24.54-.48.77-.74h.09c-.09.1-.18.19-.26.28.1-.08.21-.17.31-.25l.22.03c.09-.09.18-.18.27-.28.03,0,.05,0,.08,0,.05,0,.1.01.15.02-.06.04-.12.09-.18.13-.08.04-.16.09-.24.14h-.08s-.08.07-.12.11c-.09.05-.18.1-.27.16-.03-.02-.07-.02-.1,0-.21.14-.42.27-.62.41ZM51.16,53.81s-.04.09-.06.13l-.18.13s.03-.09.04-.14c.07-.04.14-.08.2-.12ZM50.62,54.07s.07-.09.1-.13l.15-.1s-.02.05-.03.07l-.14.1s-.03,0-.03.02c0,0,0,0,0,0l-.04.03ZM50.74,54.04s.04-.02.06-.03c-.03.06-.05.13-.07.19h0s.03-.1.03-.15c0,0,0-.01,0-.02ZM50.65,54.83c.02-.07.04-.13.07-.2.02-.07.05-.13.07-.19.04-.11.07-.22.11-.32.05-.03.1-.06.15-.09-.03.05-.05.1-.08.16-.07.15-.18.34-.17.51-.06.07-.12.14-.19.2,0-.03.02-.05.03-.07ZM50.64,57.25v-.22s.06-.02.09-.03c0,.02,0,.05.01.07-.03.06-.07.13-.1.19ZM50.73,56.66s0,.03,0,.04c-.03.03-.05.05-.07.08,0,0,0,0-.01.01v-.1s.06-.02.09-.03ZM50.82,55.88s-.02.05,0,.07c-.01.1-.02.21-.04.31-.05.04-.09.08-.14.12,0-.12,0-.23-.02-.35.03,0,.06-.02.07-.05,0,0,0-.02,0-.02.02-.04.03-.09.05-.13,0,0,0,0,0-.01.02,0,.05,0,.07,0,0,.02,0,.04,0,.07ZM51.05,56.03s0,.01,0,.02c-.03.02-.06.04-.09.07,0-.05,0-.11,0-.16.03-.03.07-.05.1-.07,0,.05,0,.1-.01.15ZM51.09,55.66s-.08.07-.12.1c0-.06,0-.12,0-.18.05-.06.1-.12.15-.18,0,.09-.02.17-.03.26ZM51.21,54.26c-.05.06-.1.12-.16.18l-.03.02c.03-.09.07-.19.11-.28.04-.09.08-.18.11-.27l.1-.06s-.03.06-.04.09c-.03.06-.13.22-.1.31ZM51.25,55.74s.06-.04.09-.07c-.01.07-.03.13-.04.19-.02.01-.03.03-.05.04,0-.06,0-.11,0-.17ZM51.35,57.93c-.02.08-.03.16-.05.25-.01.01-.03.02-.04.03,0-.09.03-.17.06-.26,0,0,.02-.02.03-.02,0,0,0,0,0,0ZM51.38,57.38s-.04.04-.06.06c0,0,0-.01,0-.02.03-.06.07-.12.1-.18,0-.02.01-.03.02-.05.02-.02.03-.04.05-.07-.04.09-.08.17-.12.26ZM51.54,60.8c-.03.13-.05.27-.07.4-.01.09-.02.18-.03.27-.05-.3.04-.59.15-.88-.02.07-.03.14-.05.21ZM51.71,59.75c-.04.1-.09.2-.13.31-.01.02-.03.03-.05.05,0-.01,0-.03,0-.04.03-.07.07-.14.1-.21.03-.06.06-.12.08-.19,0,.03,0,.05,0,.08ZM51.95,56.79c-.04.07-.07.15-.1.23,0-.02,0-.05.01-.07.03-.07.06-.13.09-.2,0,.01,0,.02,0,.03ZM51.71,56.27s0-.02,0-.02c.09-.08.18-.17.26-.27h0c-.08.1-.17.2-.27.29ZM52.01,59.95s-.03.04-.04.06c.02-.05.03-.09.05-.14,0,.03,0,.05-.01.08ZM52.11,58.8s-.03,0-.04.02c0,.05-.03.1-.05.14,0-.05,0-.09,0-.14.03-.03.07-.07.1-.1,0,.02,0,.03,0,.05,0,0,0,.02-.01.03ZM52.25,55.34s-.09.06-.13.09c0,0,0,0,0,0,.05-.05.11-.1.17-.14,0,.02-.02.03-.03.05ZM52.28,53.08s-.07.03-.11.05c.01-.03.03-.06.04-.09.04-.03.07-.05.11-.08,0,0,0,0,.01,0-.02.04-.03.07-.05.11ZM52.34,44.96c.1.05.21.09.31.13,0,0,0,0,0,0,.03.03.07.06.11.09,0,0-.01,0-.02.01-.14-.08-.28-.16-.41-.24ZM52.7,45.59s-.02-.03-.03-.04c.09.06.17.11.26.17.01.03.03.06.04.1-.09-.07-.19-.15-.28-.22ZM53.08,86.64c0,.41.02.84.03,1.29-.03-.44-.04-.87-.03-1.29ZM52.99,45.24c.07.04.14.08.21.12l.03.03c-.08-.05-.16-.1-.24-.15ZM57.28,64.74c-.04.08-.08.17-.12.25l.06-.23s.01-.01.02-.02c.06-.08.11-.16.18-.24-.05.08-.1.16-.14.24ZM57.44,64.86s.05-.1.07-.14c0,.02,0,.03,0,.05-.03.03-.05.06-.08.1ZM57.85,67.58c-.03-.08-.01-.18-.04-.27,0,0,.01-.02.02-.03,0-.01,0-.03,0-.04.02.11.03.22.01.34ZM59.17,59.51s.03.08.05.13c-.02-.04-.04-.07-.06-.11,0,0,0,0,0-.01ZM58.87,61.37s0,0,0,0c0,.16,0,.33.01.49,0,.02,0,.03.02.04-.02.07-.03.14-.05.21,0-.25.01-.5.01-.75ZM58.58,61.5c0-.09.01-.18.02-.28-.05-.82-.27-1.65-.44-2.47.02.01.04.02.07.02.05-.11.06-.24.05-.38.1.29.21.58.28.88,0,.03.01.07.02.1,0,.01.01.03.03.03.02.35.04.69.05,1.04-.02,0-.03.02-.03.03.01.05.02.1.03.16.02.86,0,1.71-.07,2.57-.15.53-.29,1.07-.42,1.61,0-.06,0-.13,0-.19,0-.12,0-.25.01-.38.02-.09.04-.18.05-.28.04-.1.07-.2.08-.31.22-.72.31-1.44.28-2.17ZM57.49,61.45c-.04.08-.08.17-.13.26.04-.12.09-.24.13-.35,0,.03,0,.06,0,.1ZM57.81,60.13s-.02-.09-.03-.13c-.08-.08.02-.11.03-.18.03.12,0,.2,0,.31ZM57.85,60.8s-.01,0-.02,0c.07-.44.04-.01.02,0ZM57.86,57.24c.08.2.17.39.26.59,0,.03,0,.05.01.07-.09-.22-.22-.44-.34-.62-.04-.09-.08-.18-.12-.26-.21-.43-.43-.86-.59-1.3-.02-.11-.05-.21-.1-.31.32.61.6,1.22.87,1.84ZM57.29,57.72c0,.12,0,.24-.01.37-.03-.03-.05-.06-.07-.09.03-.09.05-.19.09-.28ZM56.78,55.03c.05.09.1.19.15.28-.03-.03-.07-.03-.1-.03-.03-.11-.06-.22-.09-.33.01.03.03.05.04.08ZM56.71,56.47s0,.02,0,.03c0,.03,0,.07,0,.1,0,.02,0,.03.02.05,0,.04.02.08.03.12,0,.02,0,.04,0,.07-.03-.11-.05-.21-.08-.32,0-.02,0-.03.01-.05ZM56.69,60.5c.01-.07.03-.14.04-.21.03-.07.05-.15.06-.23.12-.36.19-.72.22-1.08.06-.28.1-.56.16-.83.03.03.07.06.1.08-.06.83-.24,1.62-.59,2.42,0-.05,0-.1,0-.16ZM56.66,61.07c0-.1.01-.19.02-.28,0-.02,0-.04,0-.07.33-.34.47-.77.55-1.17.02.16.03.31.05.47.47-.14.21-.56.36-.81.23.61-.3,1.25-.75,1.78-.06.07-.04.19.02.16.39-.22.46-.57.66-.85-.17.6-.7,1.05-.9,1.62-.03.08-.06.17-.08.25-.02.07-.03.13-.04.2.04-.44.11-.86.11-1.3ZM57.36,47.34s.01-.02.02-.03c0,0,0-.01,0-.02.03-.01.06-.03.08-.04-.04.03-.07.06-.11.08ZM58.25,47.08c-.08.05-.17.1-.25.15.02-.02.03-.04.05-.06.07-.03.14-.06.21-.09ZM57.9,46.7s.01-.02.02-.03c.06-.03.11-.05.16-.08-.05.1-.12.19-.19.27-.07.04-.14.07-.21.11.08-.09.16-.17.22-.27ZM58.59,45.53s-.03.03-.03.05c-.07.03-.13.05-.2.08.04-.04.08-.07.12-.11.08-.05.16-.11.24-.16-.05.04-.1.09-.14.14ZM59.39,44.84s-.01,0-.02,0c.04-.03.07-.06.11-.09,0,0,.01,0,.02.01-.04.03-.08.06-.11.08ZM61.44,44.32c-.13.07-.25.14-.38.2-.16.07-.32.13-.48.18-.1.03-.2.07-.3.1.08-.03.16-.06.24-.09.04-.01.07-.03.11-.04.08-.03.08-.1.04-.15.63-.28,1.15-.65,1.71-1.01-.21.32-.56.56-.94.79ZM61.22,43.93c.3-.27.59-.74,1.15-.58-.06.04-.11.09-.17.13-.24.23-.62.38-.98.45ZM62.69,42.73s.04.01.06.02c-.12.03-.22.06-.32.04.1-.03.16-.06.26-.07ZM62.56,43.18s-.04.04-.06.06c-.08-.01-.16-.02-.24-.03.1,0,.2-.02.3-.02ZM62.2,42.96s-.1.03-.16.05c-.07,0-.14,0-.21,0,.12-.05.23-.11.37-.06ZM60.77,43.68c.1-.06.2-.12.29-.18.15-.07.32-.17.52-.18-.23.17-.5.29-.81.37ZM60.94,42.78c.19-.09.39-.16.59-.23-.08.03-.17.07-.25.11-.14.05-.27.11-.4.18-.05.03-.11.07-.18.11l.23-.17ZM60.27,44.51s.07-.05.1-.07c.11-.04.22-.08.34-.12-.14.07-.29.13-.43.19ZM59.91,43.31c.09-.04.17-.08.25-.12-.27.19-.59.34-.83.55.18-.17.4-.26.58-.43ZM58.69,44.51s.04,0,.05,0c.04-.04.07-.09.11-.13.16-.13.31-.26.47-.39.08-.06.16-.13.24-.19.3-.18.58-.4.87-.63-.07.07-.13.15-.16.22-.19.15-.39.29-.61.41-.09.06-.17.13-.26.19-.09.07-.17.13-.25.2-.04.03-.03.07,0,.1-.09.1-.18.19-.27.29-.07.06-.13.11-.2.17-.28.25-.54.52-.79.79-.18.19-.35.38-.51.59,0-.01.02-.03.02-.04.03-.07-.03-.11-.09-.12.13-.19.26-.37.42-.55.03-.03.05-.06.08-.09,0-.01.01-.03.01-.04.29-.26.59-.52.88-.77ZM57.58,44.29c.04-.05.09-.1.13-.14-.04.05-.08.1-.11.14h-.02ZM57.41,42.6c-.07.06-.13.13-.17.21.04-.08.1-.14.17-.21ZM57.83,43.01c-.26.34-.51.7-.87.93.15-.39.53-.65.87-.93ZM57.05,49.7s.05-.06.08-.09c0,.01,0,.03.01.05-.03.01-.06.03-.09.04ZM57.1,50.11c-.08.03-.15.07-.23.1.04-.03.07-.05.11-.07.04,0,.08-.02.12-.03ZM56.62,44.78s.09-.02.11-.05c.04-.06.09-.13.13-.2,0,0,0,0,0,0-.07.13-.13.25-.18.38-.05.13-.1.26-.14.39.03-.18.05-.35.07-.53ZM56.43,49.26c.13-.11.25-.21.38-.32.07-.05.14-.11.22-.16-.13.12-.25.24-.37.36-.08.08-.17.17-.25.25,0-.02,0-.04-.01-.05.04-.03.04-.06.03-.08ZM56.3,49.42s.01.05.02.07c-.02.03-.04.05-.06.07,0,0,0,0,0,0,0,0,0-.01,0-.02.02-.03,0-.06-.02-.07.03,0,.05-.03.06-.05ZM56.24,50.47s0,0,0-.01c.05-.02.1-.04.15-.06-.02.02-.05.04-.07.07-.04.02-.07.03-.11.05.01-.01.02-.03.03-.04ZM55.72,45.86s0,0,0,0c.01.07.02.15.04.23-.02-.05-.04-.1-.07-.15,0-.02-.01-.04-.02-.06.02,0,.03-.01.05-.02ZM55.58,51.41c.08-.03.15-.07.23-.11-.14.09-.26.2-.39.3,0-.01,0-.02-.01-.04,0-.02-.01-.04-.02-.07.07-.03.13-.06.19-.09ZM55.51,50.35s0,0,0,.01c-.01.03,0,.05.02.07-.04.07-.09.14-.13.21v-.02s.02-.02.03-.04c0-.01,0-.03,0-.04h0s.03-.09.05-.14c.01-.02.02-.03.03-.05ZM55.37,44.81c.01.08.03.16.05.24-.03-.05-.05-.09-.07-.14,0-.03.02-.07.03-.1ZM55.18,53.85s.04.03.06.05c-.02.02-.03.04-.02.07.08.14.16.28.25.41,0,0,0,.02,0,.03-.03.08-.05.16-.08.23-.01.05-.03.09-.04.14-.04-.06-.07-.12-.11-.17.01-.2,0-.42-.1-.6.01-.05.02-.1.03-.14ZM55.39,56.46c-.03.18-.05.35-.07.53-.08-.16-.19-.31-.28-.46.07-.24.13-.47.18-.7.04.21.1.43.17.63ZM55.12,55.33s.02.09.03.14c-.09.33-.15.65-.16.98-.06-.13-.1-.25-.1-.38.03-.13.04-.26.04-.39,0,.02,0,.04.02.05.14-.11.14-.26.16-.39ZM54.93,55.49s0,.11,0,.17c0-.06,0-.11,0-.17ZM54.97,54.77c0,.08-.02.15-.03.23,0,.07-.02.13-.04.19-.03-.2-.08-.39-.14-.58,0-.04,0-.08.01-.12,0-.06.01-.12.02-.18.03.07.07.14.1.21.03.06.06.12.09.19,0,.02,0,.04,0,.06ZM54.67,53.53s.01-.03,0-.05c.03.03.07.06.1.08,0,.01,0,.03-.01.04-.03-.03-.06-.05-.09-.07ZM54.91,49.39h0s.01.07.02.1h0s-.02,0-.03,0c0-.01-.01-.02-.02-.03,0-.02,0-.03-.02-.05.02,0,.03,0,.04-.02ZM54.88,53.64s.03.02.04.03c0,.03,0,.06.01.09-.02-.02-.05-.04-.07-.06,0-.02,0-.03.01-.05ZM54.84,53.85s.03.02.04.03c.02.02.05.02.07.02,0,.07,0,.15,0,.22-.02-.03-.04-.06-.06-.09-.02-.04-.04-.07-.06-.11,0-.03,0-.05,0-.07ZM54.67,53.35s.06.03.1.05c.01,0,.02,0,.03,0,0,0,.02.01.03.02-.05,0-.1,0-.15,0h-.04s-.02-.02-.03-.03c.02-.01.04-.02.06-.03ZM54.55,44.56s.02.04.03.06c-.03.17-.05.35-.04.53,0,0,0,0,0,0,0-.2,0-.4.02-.59ZM54.5,53.74c.06.11.11.22.17.33-.01.07-.02.14-.03.21-.06-.17-.13-.34-.19-.51.02,0,.03-.02.05-.03ZM54.67,55.92c-.07-.13-.14-.25-.13-.4.04.14.09.27.13.4ZM54.45,56.51c.04.09.09.18.13.26.12.16.18.36.26.56-.13-.24-.29-.49-.43-.73,0-.04.02-.09.02-.13,0,.04-.02.09-.02.13-.02-.03-.04-.07-.06-.11,0-.06,0-.12.01-.18.03.07.06.13.1.2ZM54.35,44.42s0,0,0,0c0,.08-.01.17-.02.25-.01-.05-.03-.1-.04-.15.01,0,.02-.02.02-.03-.06-.11-.08-.23-.09-.34.04.09.08.18.13.27ZM54.24,45.96s-.02.02-.02.03c-.05-.03-.11-.06-.16-.09-.01-.03-.03-.07-.04-.1.07.05.15.1.22.15ZM54.03,57.34s0,.06-.01.08c0-.04,0-.08,0-.11,0,.01.01.02.02.03ZM53.9,43.15s0,.02.01.02c.04.17.09.35.14.52v.07c-.05-.17-.11-.34-.17-.51,0-.03,0-.06.01-.1ZM53.94,45.77s.02.03.03.05c0-.02-.02-.03-.03-.05.01,0,.03.01.04.02.02.03.03.07.05.1,0,0-.02,0-.03-.01,0,0,0,0,0,0-.02-.01-.05-.03-.07-.04-.01-.01-.03-.02-.04-.04,0-.03-.02-.05-.03-.08.03.01.05.03.08.04ZM53.83,57.17s.01-.04.02-.07c0,.04,0,.07,0,.11,0-.01-.02-.03-.03-.04ZM53.84,57.62c0,.08-.02.17-.03.25-.03-.07-.07-.13-.1-.19.02-.08.03-.15.05-.23.03.06.05.11.08.17ZM53.83,46.26s-.03-.04-.05-.07c.02,0,.03.02.05.03.02.03.04.07.07.09-.03-.02-.05-.03-.08-.05ZM53.83,45.71s.03.06.05.09c-.07-.06-.14-.12-.21-.18.05.03.11.06.16.1ZM53.63,57.19s.03.04.04.06c0,.02,0,.03.01.05,0,.1-.01.2-.02.3-.06-.12-.13-.24-.19-.36,0-.02,0-.03,0-.05.02-.03.04-.07.06-.1.03.03.05.05.07.08l-.02.08s.02-.04.03-.06ZM53.76,43.99c.02.05.03.11.05.16,0,0,0,0-.01-.01-.02-.08-.05-.16-.09-.24.02.03.03.05.05.08ZM53.63,43.59s-.03-.05-.04-.07c0-.02,0-.04,0-.07.02.05.03.09.05.14ZM53.45,44.51s0,0,0-.01c.08.05.16.1.24.15-.08-.05-.16-.09-.24-.14ZM53.45,58.32c0-.07,0-.13,0-.2.04.07.07.13.11.2,0,.05-.02.1-.02.15-.03-.05-.06-.1-.09-.15ZM53.62,59.19c0-.07,0-.14,0-.2.04.08.08.17.12.25.1.17.16.37.17.55,0,.02,0,.04,0,.06-.05-.23-.18-.45-.29-.66ZM53.74,58.87c-.06-.13-.12-.25-.18-.37,0-.05.02-.1.02-.15.11.21.23.42.33.63.05.1.09.19.14.29-.09-.15-.2-.28-.31-.4ZM53.99,58.22s.03-.08.05-.12c.07.22.13.45.19.67-.07-.19-.15-.37-.24-.55ZM54.17,57.7s0-.03.01-.05c.02.05.05.11.07.16-.03-.03-.05-.07-.08-.11ZM54.27,56.36c0-.06,0-.12,0-.17,0,0,.01-.01.01-.02.02.05.04.1.07.14,0,.06,0,.11-.02.17-.02-.04-.04-.08-.07-.12ZM54.47,58.12c-.05-.08-.11-.17-.16-.24.07,0,.12.03.12.03.17-.1,0-.23.07-.34.02.16.03.32.08.45.01.12.03.24.04.35-.05-.08-.1-.16-.15-.24ZM55.52,57.83c0,.31-.02.62-.04.93-.03.06-.05.13-.07.19-.03.12-.06.24-.05.37-.03.1-.06.21-.09.31-.02-.08-.06-.17-.1-.28-.04-.1-.1-.2-.15-.32-.06-.11-.12-.23-.19-.35,0-.17,0-.33-.02-.5.03.02.08,0,.08-.03-.06-.43-.23-.8-.4-1.21.17.37.45.72.49,1.14.04.12.09.24.15.36.02.04.09.02.08-.02,0-.09-.02-.18-.04-.27.05.02.11.02.15,0,.03.09.07.18.11.26.02.03.08.02.08-.01-.01-.11-.03-.21-.06-.32-.14-.54-.28-1.07-.59-1.53.17.19.23.42.45.59,0,.09-.02.18-.03.27.06-.06.1-.13.13-.2t0,0s0,0,0,0c.07-.16.07-.33.09-.49,0,0,0,.01,0,.02v.04s-.02.09,0,.13h0s-.03.02-.02.03c0,.04.02.08.03.12,0,.22,0,.45,0,.67-.03.06-.05.11-.08.17.03-.02.05-.05.07-.07ZM55.55,55.08c-.03-.05-.07-.11-.1-.16.01-.06.03-.12.04-.18,0-.01,0-.02.01-.03,0,0,0,.02,0,.03,0,.02,0,.05,0,.07,0,.01,0,.03.02.03,0,.03.02.06.02.09,0,.05,0,.1,0,.15ZM55.69,58.02c0-.14,0-.28,0-.42,0,0,0,0,0,0,0,.12,0,.24,0,.37,0,0,0,.01,0,.02,0,0-.02.02-.03.03ZM55.81,54.14c-.02-.1-.05-.19-.1-.28-.02-.03-.06-.04-.1-.04,0-.03-.02-.07-.03-.1.06.04.12.08.19.12.03.09.06.18.08.27,0,.04,0,.09,0,.13-.01-.03-.03-.06-.04-.1ZM55.61,51.28l-.04.02.02-.02s.04-.04.07-.05c.01-.01.02-.02.02-.03.02-.03.05-.05.07-.08.14-.11.28-.22.43-.32.12-.07.24-.14.37-.21.03,0,.06-.02.09-.02.14-.04.32-.07.49-.12-.04.03-.07.07-.11.1-.3.13-.57.3-.84.45-.19.1-.37.2-.56.29ZM55.97,55.64c0,.06,0,.11,0,.16-.01-.02-.02-.04-.03-.06.01-.03.02-.07.04-.1ZM55.96,60.87c-.04.06-.07.12-.1.19.02-.06.03-.12.05-.17,0,0,.01,0,.02-.02.04-.06.09-.12.14-.18-.04.06-.08.12-.11.18ZM56.1,60.96s.04-.07.06-.1c0,.01,0,.02,0,.03-.02.03-.04.05-.06.07ZM56.03,59.9s.03.07.07.07c0,.02-.01.03-.02.05-.03.03-.05.06-.07.09-.01-.05-.02-.1-.04-.15,0,0,0-.02,0-.02,0-.06,0-.11,0-.17.04-.1.08-.19.12-.28.03-.06.07-.11.1-.17.01.03.03.07.04.1-.08.16-.15.31-.19.48ZM56.2,54.2s-.02-.08-.03-.11c0-.04-.04-.06-.08-.07.03-.01.04-.03.04-.06.12.17.23.35.34.52-.04,0-.07.03-.09.06-.01.03-.02.06-.03.1-.01-.13-.04-.26-.09-.38-.01-.03-.04-.05-.07-.05ZM56.43,62.98c-.03-.06,0-.15-.03-.21,0-.05-.01-.11-.02-.18.02,0,.02-.02.02-.02,0,.15.06.27.03.41ZM56.44,59.06c-.04.07-.08.13-.12.2-.01-.03-.02-.05-.03-.08.04-.06.09-.12.14-.18,0,0,0,.01.01.02,0,.01,0,.03,0,.04ZM56.43,57.93s-.01,0-.02,0c.01-.07.02-.11.03-.13,0,0,0,.01,0,.02,0,.04-.01.1-.01.11ZM56.39,53.57c-.05-.07-.1-.15-.15-.22.05.01.1.03.15.05.02.03.05.06.07.09.02.03.05.07.07.1-.05,0-.09-.01-.14-.02ZM56.93,54.07s0,0,.01,0c.08.06.17.12.25.17.01.03.02.05.03.08-.1-.08-.2-.16-.3-.24ZM57.58,50s.08-.02.12-.03c-.02.02-.04.03-.06.05-.04,0-.08,0-.13.02.02-.01.04-.03.07-.04ZM57.52,52.07c.08,0,.16,0,.24-.01-.1.02-.14.01-.24.01ZM57.98,54.58c.04.06.08.11.12.17-.13-.13-.27-.26-.41-.38,0,0,0-.01,0-.02.11.07.22.15.3.23ZM57.93,52.08s0-.03,0-.04c.09,0,.19-.02.29-.03-.1.02-.19.04-.28.07ZM58.32,51.59c.13-.05.26,0,.4.03-.13-.01-.26-.02-.4-.03ZM59.45,54.7s0-.02,0-.03c0,0,0,.01.01.02.06.08.11.16.15.24l-.17-.23ZM59.67,54.44s.06.04.09.06c-.02-.02-.06,0-.09-.06ZM62.58,56.24c-.17-.11-.13-.31-.3-.4-.03-.07-.06-.13-.08-.19.15.18.27.4.38.59ZM63.86,55.26s-.08,0-.11-.08c.04.03.07.06.11.08ZM62.27,54.27c-.11-.07-.28-.14-.36-.29.05.04.1.07.16.1.02,0,.04,0,.06,0,.05.04.11.09.15.17,0,0,0,.01,0,.02ZM63.01,55.24c-.07-.08-.14-.17-.22-.25-.05-.03-.09-.07-.12-.15.28.31.62.62.79.99-.16-.21-.27-.38-.45-.59ZM63.62,55.82c-.07-.11-.16-.24-.26-.38-.06-.1-.14-.18-.17-.27.29.27.47.6.61.93-.08-.09-.11-.21-.17-.28ZM64.04,56.37c-.03-.12-.06-.2-.1-.32-.05-.11-.1-.24-.18-.38.03-.04-.02-.04-.01-.08.15.25.3.5.29.78ZM64.34,55.83s-.03-.04-.04-.06c.07-.04.06,0,.04.06ZM64.73,54.82s0-.02-.01-.03c.09.06.18.12.28.17,0,.02.02.03.03.05-.11-.06-.2-.12-.29-.19ZM66.98,57.07c-.03-.09-.07-.17-.1-.25.19.24.33.53.48.79-.22-.14-.17-.41-.38-.53Z"/>
        <path class="cls-1" d="M53.32,92.78s0,0,0,0c-.05,0-.1,0-.15,0h.15Z"/>
        <path class="cls-1" d="M54.01,45.88s-.02-.04-.03-.06c.01.02.02.04.03.06,0,0,0,0,0,0Z"/>
        <path class="cls-1" d="M50.42,52.99s0,0,.01,0h0s0,0,0,0Z"/>
        <path class="cls-1" d="M48.91,54.2c.2-.16.37-.32.52-.49-.21.14-.4.3-.52.49Z"/>
        <path class="cls-1" d="M48.09,51.02c-.37.26-.72.56-1.05.8.34-.22.74-.5,1.05-.8Z"/>
        <path class="cls-1" d="M48.56,51.6c.19-.14.36-.28.53-.42l-.15-.03c-.13.15-.26.3-.38.45Z"/>
        <path class="cls-1" d="M48.09,51.02s0,0,.02-.01h0s0,0-.01.01Z"/>
        <path class="cls-1" d="M46.4,52.03c.38-.32.84-.68,1.22-1.08-.48.33-.93.7-1.22,1.08Z"/>
        <path class="cls-1" d="M45.79,51.72c.01-.06.02-.11.02-.11.02-.09,0,.03-.02.11Z"/>
        <path class="cls-1" d="M49.65,51.27h-.05c-.09.06-.18.12-.27.18.1-.06.21-.12.31-.18Z"/>
        <path class="cls-1" d="M47.62,50.95s.02-.02.03-.02h0s-.01.02-.02.02Z"/>
      </g>
    </g>
  </g>
</svg>