<?xml version="1.0" encoding="UTF-8"?>
<svg id="Layer_2" data-name="Layer 2" xmlns="http://www.w3.org/2000/svg" viewBox="0 0 177.31 114.21">
  <defs>
    <style>
      .cls-1 {
        fill: #fff;
        stroke-width: 0px;
      }
    </style>
  </defs>
  <g id="Camada_1" data-name="Camada 1">
    <g>
      <path class="cls-1" d="M99.6,15.82c-1.1-2.17-2.43-4.22-3.87-6.17-.48-.62-.92-1.32-1.53-1.83-.01-.03-.03-.05-.06-.07-.85-.66-1.85-1.13-2.92-1.43-.07-.55-.38-.92-.6-1.36-.76-1.48-1.24-3.15-1.22-4.82,0,0-.12-.11-.12-.12h-.57s-.03-.02-.06-.02h-.6c-.07,0-.12.05-.12.11.06,2.18-.84,4.21-1.8,6.12l.04.02c-1.06.28-2.06.75-2.9,1.42,0,0,0,0,0,0,0,0,0,0,0,0-.06.05-.12.09-.17.13-.04.02-.06.06-.07.09-.55.51-.98,1.16-1.44,1.75-1.45,1.95-2.78,4-3.88,6.17-4.51,8.63-6.28,18.98-3.85,28.5.26.89.57,1.76.91,2.62-.28,4.05-.11,8.2,1.11,12.1,1.59,5.36,4.94,9.86,8.16,14.33,1.58,2.27,3.34,4.32,4.43,6.84,0,.01,0-.01,0-.04,0,0,.01.02.02.03.02.02.06.06.15.07,0,0,0,0,.01,0,0,0,0,0,0,0,0,0,0,0,0,0,0,0,0,0,.01,0,.09,0,.14-.05.15-.07,0-.01,0-.01.01-.02,0,.02,0,.05,0,.04,1.09-2.52,2.85-4.57,4.43-6.84,3.22-4.47,6.57-8.97,8.16-14.33,1.22-3.9,1.4-8.05,1.11-12.1.34-.86.66-1.73.91-2.62,2.43-9.52.66-19.87-3.85-28.5ZM101.38,21.32c.34,2.1,0,4.34-1.32,6.06-1.28,1.56-1.87,3.5-2.07,5.49-1.16-1.65-2.43-3.2-3.69-4.75-.24-.3-.48-.59-.73-.88.03-2.48.74-4.95,2.29-6.92,1.51-1.93,2.18-4.37,2.09-6.8,1.44,2.47,2.58,5.09,3.43,7.81ZM88.68,79.52l-.02.06s-.02-.06-.02-.06c-.41-1.24-.99-2.76-1.36-4.01-.5-1.59-1.03-3.16-1.58-4.73,1.53-6.73,3.89-13.27,7.35-19.26,3.73-5.97,5.27-11.89,3.93-18.68.33.49.64.98.95,1.48.02.06.05.11.09.15,1.53,2.55,2.7,5.28,3.16,8.29.18,1.25.36,2.52.51,3.79-.73,2.21-1.72,4.33-2.78,6.41-3.47,7.3-6.42,14.85-8.86,22.55-.37,1.26-.95,2.77-1.36,4.01ZM83.53,28.53c1.61-2.09,3.28-4.12,5.05-6.06,2.29,4.58,3.33,9.96,1.69,14.91-.52,1.67-1.32,3.24-2.13,4.8-1.66,3.1-3.15,6.31-4.14,9.7-.95,3.16-1.52,6.44-1.77,9.74-1.2-2.92-2.47-5.81-3.82-8.66-1.06-2.09-2.05-4.21-2.78-6.41.15-1.28.33-2.54.51-3.79.83-5.45,4-9.99,7.39-14.22ZM92.49,14.06c-2.34-1.41-5.32-1.46-7.69-.09-.39-1.29-.71-2.6-.98-3.92,2.76-2.17,6.96-2.12,9.66.12-.27,1.31-.59,2.61-.99,3.88ZM92.44,14.24c-.49,1.56-1.1,3.09-1.86,4.54-.57,1.05-1.2,2.06-1.92,3.01-.71-.95-1.35-1.96-1.92-3.01-.79-1.48-1.39-3.03-1.88-4.63,2.18-1.6,5.43-1.57,7.58.08ZM84.01,51.88c.51-1.68,1.12-3.34,1.85-4.94,1.44-3.23,3.53-6.11,4.71-9.46,1.66-4.63.89-9.76-1.09-14.17,1.5,1.69,2.93,3.44,4.31,5.23.82,1.03,1.63,2.08,2.4,3.15.93,3.25,1.23,6.71.71,10.07-.71,5.32-4.07,9.69-6.35,14.41-2.24,4.52-3.94,9.31-4.97,14.25-.97-2.78-2.01-5.53-3.12-8.25.04-3.47.58-6.95,1.56-10.29ZM94.73,8.89c.25.31.51.63.75.95.83,1.09,1.59,2.22,2.28,3.39.35,2.5-.33,5.11-1.94,7.07-1.51,1.9-2.37,4.3-2.44,6.73-1.43-1.71-2.93-3.35-4.5-4.93,2.67-4.18,4.17-8.93,5.29-13.73l.05-.2c.05.12.08.22.15.3l.36.44ZM88.17.24c.17.01.49.04.49.04.02,0,.03-.01.04-.02v.04s.48-.04.48-.04c.01,1.69.13,3.43.88,4.98.15.31.3.64.51.92-1.21-.25-2.48-.27-3.7-.05,1.01-1.76,1.29-3.86,1.29-5.87ZM86.29,6.67s0,0,0,0c2.52-.81,4.82-.39,7.58,1.36,0,0,0,.02,0,.02l-.04.24-.08.47c-.07.41-.15.82-.24,1.23-2.88-1.99-6.81-2.04-9.74-.12-.01-.06-.02-.11-.04-.17-.06-.29-.22-1.14-.27-1.41l-.04-.24s0-.01,0-.02c0,0,0,0,.01,0,1-.61,1.94-1.06,2.85-1.35ZM81.82,9.83c.24-.32.49-.64.74-.95.17-.2.39-.47.52-.74.01.06.05.21.05.21,1.09,4.8,2.64,9.55,5.29,13.73-1.54,1.56-3.03,3.18-4.44,4.87-.07-2.42-.93-4.81-2.43-6.7-.19-.24-.37-.48-.54-.73.02.03.04.06.05.08-.03-.04-.05-.08-.08-.12,0,.01.02.02.03.04-.02-.03-.04-.06-.06-.09-.06-.09-.11-.19-.17-.29-.09-.15-.18-.3-.26-.46-.04-.08-.07-.16-.11-.23-.09-.2-.18-.4-.26-.6-.51-1.4-.67-2.92-.48-4.42,0-.07.02-.29.04-.36,0-.03.02-.05,0-.07.66-1.08,1.35-2.14,2.13-3.16ZM79.33,13.57c-.04,1.37.21,2.74.71,4.02.13.35.27.69.44,1.03.01.02.03.04.04.07.2.4.44.78.7,1.14.82,1.23,1.71,2.42,2.08,3.88.35,1.12.47,2.3.5,3.47-.26.31-.52.63-.78.94-1.26,1.55-2.53,3.1-3.69,4.75-.19-2.01-.79-3.97-2.08-5.55-.32-.42-.58-.88-.79-1.36-.12-.27-.22-.55-.31-.84-.35-1.18-.43-2.44-.25-3.66.86-2.75,1.99-5.4,3.44-7.9ZM75.62,22.37c.04.71.14,1.41.32,2.1.11.47.26.94.45,1.38.22.52.48,1.03.8,1.51,1.29,1.89,1.95,4.24,1.48,6.49-.2.3-.4.6-.59.91-1.79,2.83-2.75,6.1-3.11,9.42-.01-.04-.02-.09-.03-.13-1.49-7.11-1.32-14.68.69-21.68ZM82.61,69.39c-2.14-3.45-4.84-6.67-6.26-10.49-1.17-3.36-1.23-6.91-.92-10.43.75,1.63,1.61,3.2,2.5,4.75,1.62,2.79,2.93,5.74,4.1,8.75,1.78,4.5,3.07,9.18,4.67,13.76.01.03.02.07.04.1-1.3-2.19-2.81-4.27-4.13-6.44ZM100.96,58.9c-1.42,3.82-4.12,7.04-6.26,10.49-1.33,2.17-2.83,4.24-4.13,6.44.01-.03.03-.07.04-.1,1.6-4.57,2.89-9.26,4.67-13.76,1.18-3.01,2.48-5.96,4.1-8.75.89-1.54,1.75-3.12,2.5-4.75.31,3.52.26,7.07-.92,10.43ZM102.38,44.05s-.02.09-.03.13c-.37-3.32-1.32-6.58-3.11-9.42-.19-.32-.4-.62-.61-.93-.49-2.22.23-4.56,1.48-6.42,1-1.52,1.49-3.28,1.57-5.08,2.02,7.01,2.19,14.59.7,21.72Z"/>
      <g>
        <g>
          <path class="cls-1" d="M147.28,89.75h1.99c.28,7.01-.22,13.99-.57,20.98.07,0,.14.01.21.02.09-.67.18-1.34.27-2.01.61-4.26,1.6-8.41,3.62-12.25,1.16-2.22,2.62-4.21,4.7-5.68,1.34-.94,2.8-1.51,4.47-1.53,2.43-.02,4.29.98,5.28,3.16.78,1.74,1.42,3.58,1.8,5.44,1.04,5.12,1.9,10.28,2.83,15.42.02.11,0,.23,0,.38h-2.01c-.3-1.69-.6-3.37-.9-5.04-.65-3.62-1.24-7.25-1.98-10.85-.29-1.41-.75-2.83-1.38-4.13-1.39-2.85-4.41-3.82-7.31-2.48-1.65.77-2.87,2.03-3.89,3.49-2.17,3.09-3.4,6.58-4.09,10.24-.48,2.54-.69,5.13-1.01,7.7-.04.34-.07.69-.12,1.11-.53,0-1.04.03-1.54-.02-.13-.01-.29-.22-.36-.38-.06-.14-.01-.32-.01-.48,0-7.43,0-14.86,0-22.3,0-.25,0-.5,0-.81Z"/>
          <path class="cls-1" d="M112.5,100.97c-.01,6.26-3.97,11.46-9.88,12.85-3.38.79-6.67.41-9.69-1.35-3.51-2.05-5.28-5.25-5.46-9.22-.24-5.36,1.85-9.63,6.6-12.35,5.08-2.91,11.94-1.84,15.66,2.34,1.8,2.02,2.78,4.75,2.78,7.73ZM89.03,100.27c.02,4.96,3.14,9.84,7.66,11.93,7.07,3.28,14.61-1.64,14.25-9.35-.18-3.85-1.88-7.01-4.74-9.57-1.98-1.77-4.29-2.85-6.97-2.97-5.82-.26-10.22,4.06-10.2,9.95Z"/>
          <path class="cls-1" d="M130.1,89.28c4.68.14,8.52,1.84,10.78,6.14,3.47,6.61.06,16.7-9.06,18.49-2.67.52-5.29.31-7.79-.75-4.28-1.82-6.51-5.17-6.88-9.72-.46-5.81,2.69-11.25,8.3-13.35,1.49-.56,3.04-.84,4.65-.81ZM118.71,101.11c.32,4.59,2.78,8.72,7.7,11.08,7,3.36,14.57-1.63,14.21-9.29-.19-4.01-1.98-7.27-5.03-9.85-1.93-1.64-4.16-2.63-6.71-2.73-5.82-.24-10.21,4.1-10.18,10.79Z"/>
          <path class="cls-1" d="M41.79,89.3c5.76,0,10.24,3.12,11.68,8.13,1.02,3.57.57,7.05-1.25,10.27-4.29,7.59-13.85,8.02-19.06,3.94-3.12-2.45-4.35-5.79-4.28-9.66.1-5.33,3.44-10.07,8.36-11.89,1.49-.55,3.04-.83,4.53-.79ZM30.5,101.26c.28,4.37,2.73,8.49,7.63,10.9,6.07,2.98,12.82-.31,14.06-6.81.82-4.28-.66-7.95-3.53-11.09-2.13-2.33-4.77-3.79-7.97-3.94-5.81-.27-10.19,4.02-10.19,10.94Z"/>
          <path class="cls-1" d="M82.92,102.4c0,.14.04.3,0,.43-1.02,2.7-2.23,5.28-4.1,7.52-4.09,4.92-11.98,4.99-16.69.9-4.03-3.5-5.13-7.97-3.68-12.97,1.45-4.99,4.92-7.96,10.07-8.83,2.91-.49,5.69-.03,8.17,1.69,1.21.84,2.11,1.94,2.73,3.27.09.2.1.43.15.65-.06.03-.13.06-.19.08-.1-.13-.23-.24-.3-.38-1.73-3.73-5.72-5.44-9.67-4.97-4.86.57-8.12,3.88-8.77,8.73-.41,3.07-.13,6.04,1.27,8.86,3.37,6.77,12.57,7.63,17.05,1.85,1.44-1.85,2.49-3.9,3.32-6.07.11-.29.28-.56.42-.84.07.03.14.05.21.08Z"/>
          <path class="cls-1" d="M25.1,102.4c-.01.17.01.35-.04.5-.95,2.52-2.1,4.93-3.76,7.09-4.16,5.38-12.34,5.41-17.11,1.18-4-3.55-5.02-8.04-3.53-13.01,1.47-4.91,4.93-7.86,10.03-8.7,3.3-.54,6.42.02,8.96,2.36.8.73,1.33,1.75,1.96,2.66.11.15.06.41.09.62-.06.02-.12.03-.18.05-.09-.12-.2-.24-.26-.38-1.76-3.8-5.84-5.4-9.74-4.98-4.84.53-8.28,4.01-8.82,9.56-.27,2.79.11,5.49,1.38,8.04,3.39,6.76,12.53,7.61,17.01,1.9,1.49-1.9,2.54-4.02,3.42-6.25.1-.25.25-.47.38-.71.07.02.14.05.2.07Z"/>
        </g>
        <path class="cls-1" d="M177.31,112.43c0,.93-.75,1.66-1.69,1.66s-1.66-.73-1.66-1.66.75-1.66,1.66-1.66,1.69.75,1.69,1.66"/>
      </g>
    </g>
  </g>
</svg>