<?xml version="1.0" encoding="UTF-8"?>
<svg id="Layer_2" data-name="Layer 2" xmlns="http://www.w3.org/2000/svg" viewBox="0 0 15.64 15.64">
  <defs>
    <style>
      .cls-1 {
        fill: #7a5049;
        stroke-width: 0px;
      }
    </style>
  </defs>
  <g id="Camada_1" data-name="Camada 1">
    <g>
      <path class="cls-1" d="M15.62.18c-.03-.07-.09-.13-.16-.16-.04-.01-.07-.02-.11-.02h-3.54c-.16,0-.3.13-.3.3s.13.3.3.3h2.83l-4.81,4.81c-.12.12-.12.3,0,.42.06.06.13.09.21.09s.15-.03.21-.09L15.05,1.01v2.83c0,.16.13.3.3.3s.3-.13.3-.3V.3s0-.08-.02-.11Z"/>
      <path class="cls-1" d="M5.4,9.83L.59,14.63v-2.83c0-.16-.13-.3-.3-.3s-.3.13-.3.3v3.54s0,.08.02.11c.03.07.09.13.16.16.04.01.07.02.11.02h3.54c.16,0,.3-.13.3-.3s-.13-.3-.3-.3H1.01l4.81-4.81c.12-.12.12-.3,0-.42s-.3-.12-.42,0Z"/>
      <path class="cls-1" d="M.3,4.13c.16,0,.3-.13.3-.3V1.01l4.81,4.81c.06.06.13.09.21.09s.15-.03.21-.09c.12-.12.12-.3,0-.42L1.01.59h2.83c.16,0,.3-.13.3-.3s-.13-.3-.3-.3H.3s-.08,0-.11.02C.11.05.05.11.02.18c-.01.04-.02.07-.02.11v3.54c0,.16.13.3.3.3Z"/>
      <path class="cls-1" d="M15.35,11.51c-.16,0-.3.13-.3.3v2.83l-4.81-4.81c-.12-.12-.3-.12-.42,0s-.12.3,0,.42l4.81,4.81h-2.83c-.16,0-.3.13-.3.3s.13.3.3.3h3.54s.08,0,.11-.02c.07-.03.13-.09.16-.16.01-.04.02-.07.02-.11v-3.54c0-.16-.13-.3-.3-.3Z"/>
    </g>
  </g>
</svg>