<?xml version="1.0" encoding="UTF-8"?>
<svg id="Layer_2" data-name="Layer 2" xmlns="http://www.w3.org/2000/svg" viewBox="0 0 24.51 24.51">
  <defs>
    <style>
      .cls-1 {
        fill: #fff;
        stroke-width: 0px;
      }
    </style>
  </defs>
  <g id="Camada_1" data-name="Camada 1">
    <g>
      <path class="cls-1" d="M12.25,0C5.51,0,0,5.51,0,12.25,0,14.38.63,16.54,1.82,18.52L.04,23.55c-.09.26-.03.55.17.74.14.14.32.21.51.21.08,0,.16-.01.23-.04l5.08-1.74c1.95,1.18,4.04,1.78,6.22,1.78,3.26,0,6.33-1.28,8.65-3.6,2.32-2.32,3.6-5.39,3.6-8.65C24.51,5.51,19,0,12.25,0ZM12.25,23.07c-2.01,0-3.94-.58-5.75-1.74-.12-.07-.25-.11-.39-.11-.08,0-.16.01-.23.04l-4,1.37,1.4-3.96c.07-.21.05-.44-.07-.63-1.17-1.83-1.78-3.83-1.78-5.79C1.44,6.29,6.29,1.44,12.25,1.44s10.82,4.85,10.82,10.82-4.85,10.82-10.82,10.82Z"/>
      <path class="cls-1" d="M19.75,15.19l-2.28-2.28c-.29-.29-.67-.45-1.08-.45s-.79.16-1.08.45l-.57.57c-.17.17-.39.26-.63.26s-.46-.09-.63-.26l-2.28-2.28c-.35-.35-.35-.92,0-1.27l.57-.57c.29-.29.45-.67.45-1.08s-.16-.79-.45-1.08l-2.28-2.28c-.59-.59-1.56-.59-2.16,0l-.57.57c-.82.82-1.09,2.54-.71,4.5.41,2.12,1.47,4.12,2.99,5.64,1.52,1.52,3.52,2.58,5.64,2.99,1.42.27,3.48.31,4.5-.71l.57-.57c.29-.29.45-.67.45-1.08,0-.41-.16-.79-.45-1.08ZM18.74,16.33l-.57.57c-.39.39-1.62.62-3.21.32-1.07-.21-3.12-.82-4.9-2.6-1.78-1.78-2.39-3.83-2.6-4.9-.1-.51-.14-.98-.14-1.4,0-.89.19-1.54.46-1.81l.57-.57s.04-.03.06-.03.05,0,.06.03l2.28,2.28s.03.04.03.06,0,.04-.03.06l-.57.57c-.91.91-.91,2.39,0,3.3l2.28,2.28c.44.44,1.03.68,1.65.68s1.21-.24,1.65-.68l.57-.57s.09-.03.12,0l2.28,2.28s.03.04.03.06c0,.02,0,.05-.03.06Z"/>
    </g>
  </g>
</svg>