<?xml version="1.0" encoding="UTF-8"?>
<svg id="Layer_2" data-name="Layer 2" xmlns="http://www.w3.org/2000/svg" viewBox="0 0 23.57 23.57">
  <defs>
    <style>
      .cls-1 {
        fill: #fff;
        stroke-width: 0px;
      }
    </style>
  </defs>
  <g id="Camada_1" data-name="Camada 1">
    <g>
      <path class="cls-1" d="M17.19,0H6.38C2.86,0,0,2.86,0,6.38v10.81c0,3.52,2.86,6.38,6.38,6.38h10.81c3.52,0,6.38-2.86,6.38-6.38V6.38c0-3.52-2.86-6.38-6.38-6.38ZM22.18,17.19c0,2.76-2.24,5-5,5H6.38c-2.76,0-5-2.24-5-5V6.38C1.38,3.62,3.62,1.38,6.38,1.38h10.81c2.76,0,5,2.24,5,5v10.81Z"/>
      <path class="cls-1" d="M11.78,5.34c-3.55,0-6.44,2.89-6.44,6.44s2.89,6.44,6.44,6.44,6.44-2.89,6.44-6.44-2.89-6.44-6.44-6.44ZM11.78,16.84c-2.79,0-5.06-2.27-5.06-5.06s2.27-5.06,5.06-5.06,5.06,2.27,5.06,5.06-2.27,5.06-5.06,5.06Z"/>
      <path class="cls-1" d="M18.38,3.05c-1.05,0-1.9.85-1.9,1.9s.85,1.9,1.9,1.9,1.9-.85,1.9-1.9-.85-1.9-1.9-1.9ZM18.38,5.48c-.29,0-.52-.23-.52-.52s.23-.52.52-.52.52.23.52.52-.23.52-.52.52Z"/>
    </g>
  </g>
</svg>