<?xml version="1.0" encoding="UTF-8"?>
<svg id="Layer_2" data-name="Layer 2" xmlns="http://www.w3.org/2000/svg" viewBox="0 0 30.64 23.09">
  <defs>
    <style>
      .cls-1 {
        fill: #fff;
        stroke-width: 0px;
      }
    </style>
  </defs>
  <g id="Camada_1" data-name="Camada 1">
    <g>
      <path class="cls-1"
        d="M12.63,15.99c-.18,0-.37-.05-.53-.15-.31-.19-.5-.52-.5-.88v-7.46c0-.37.19-.7.5-.88.16-.09.34-.14.52-.14.17,0,.34.04.49.13l6.87,3.76c.33.18.54.53.53.9,0,.38-.21.72-.54.9l-6.87,3.7c-.15.08-.32.12-.49.12ZM12.96,14.41l5.87-3.16-5.87-3.21v6.37Z" />
      <path class="cls-1"
        d="M15.35,23.09c-.32,0-7.75-.12-10.12-.34h-.06c-.07-.02-.18-.03-.31-.05-.77-.09-2.2-.25-3.32-1.47-1.02-1.08-1.28-3.2-1.31-3.43-.02-.28-.23-2.67-.23-5.07v-2.33c0-2.41.2-4.79.23-5.05.03-.26.32-2.38,1.3-3.44C2.73.59,4.07.44,4.72.36l.2-.02c4.13-.3,10.34-.34,10.4-.34.07,0,6.28.04,10.38.34l.2.02c.65.07,2.01.23,3.21,1.5,1.03,1.08,1.28,3.23,1.31,3.47.02.27.23,2.65.23,5.07v2.33c0,2.4-.2,4.79-.23,5.05-.11.88-.5,2.57-1.3,3.44-1.18,1.3-2.51,1.44-3.16,1.51l-.23.03c-4.01.29-10.1.34-10.36.34h-.01ZM15.32,1.35c-.06,0-6.22.04-10.29.33l-.16.02c-.55.06-1.48.17-2.34,1.12-.52.56-.85,1.9-.95,2.65-.02.27-.22,2.62-.22,4.93v2.33c0,2.3.2,4.66.22,4.92.08.76.4,2.08.94,2.64.79.87,1.81.99,2.49,1.06.13.01.25.03.37.05,2.34.22,9.67.33,9.98.33.26,0,6.25-.04,10.25-.33l.2-.02c.58-.06,1.47-.15,2.3-1.07.58-.63.89-2.17.95-2.65.02-.27.22-2.63.22-4.93v-2.33c0-2.4-.21-4.82-.22-4.93-.08-.77-.4-2.12-.94-2.68-.86-.92-1.81-1.02-2.38-1.09l-.16-.02c-4.05-.29-10.2-.34-10.26-.34h0Z" />
    </g>
  </g>
</svg>
