<?xml version="1.0" encoding="UTF-8"?>
<svg id="Layer_2" data-name="Layer 2" xmlns="http://www.w3.org/2000/svg" viewBox="0 0 23.57 23.57">
  <defs>
    <style>
      .cls-1 {
        fill: #fff;
        stroke-width: 0px;
      }
    </style>
  </defs>
  <g id="Camada_1" data-name="Camada 1">
    <path class="cls-1" d="M20.7,0H2.87C1.29,0,0,1.29,0,2.87v17.83c0,1.58,1.29,2.87,2.87,2.87h9.14c.38,0,.7-.31.7-.7v-8.44c0-.38-.31-.7-.7-.7h-2.5v-1.98h2.5c.38,0,.7-.31.7-.7v-2.82c0-1.52,1.24-2.76,2.76-2.76h2.41v1.98h-2.41c-.43,0-.78.35-.78.78v2.82c0,.38.31.7.7.7h2.5v1.98h-2.5c-.38,0-.7.31-.7.7v8.44c0,.38.31.7.7.7h5.32c1.58,0,2.87-1.29,2.87-2.87V2.87c0-1.58-1.29-2.87-2.87-2.87ZM22.17,20.7c0,.82-.66,1.48-1.48,1.48h-4.62v-7.05h2.5c.38,0,.7-.31.7-.7v-3.37c0-.38-.31-.7-.7-.7h-2.5v-1.51h2.5c.38,0,.7-.31.7-.7v-3.37c0-.38-.31-.7-.7-.7h-3.11c-2.29,0-4.16,1.86-4.16,4.16v2.12h-2.5c-.38,0-.7.31-.7.7v3.37c0,.38.31.7.7.7h2.5v7.05H2.87c-.82,0-1.48-.66-1.48-1.48V2.87c0-.82.66-1.48,1.48-1.48h17.83c.82,0,1.48.66,1.48,1.48v17.83Z"/>
  </g>
</svg>