<svg xmlns="http://www.w3.org/2000/svg" width="29.985" height="74.691" viewBox="0 0 29.985 74.691">
  <path id="Path_4" data-name="Path 4"
    d="M411.619,82.922c-.009.04-.021.08-.03.12a20.371,20.371,0,0,0-2.883-8.714c-.178-.3-.373-.575-.561-.862a7.84,7.84,0,0,1,1.374-5.94,9.192,9.192,0,0,0,1.456-4.7A42.07,42.07,0,0,1,411.619,82.922ZM410.31,96.659c-1.315,3.536-3.814,6.517-5.795,9.709-1.227,2.006-2.619,3.927-3.825,5.957.01-.031.023-.065.034-.095,1.477-4.233,2.671-8.566,4.321-12.734a58.368,58.368,0,0,1,3.8-8.1c.824-1.429,1.619-2.889,2.311-4.4A22.918,22.918,0,0,1,410.31,96.659Zm-17,9.709c-1.98-3.192-4.48-6.173-5.794-9.709a22.919,22.919,0,0,1-.848-9.653c.693,1.506,1.487,2.966,2.311,4.4a58.137,58.137,0,0,1,3.8,8.1c1.65,4.168,2.845,8.5,4.322,12.734.01.03.023.064.033.095C395.93,110.295,394.537,108.374,393.31,106.368Zm-6.464-43.514a10,10,0,0,0,.293,1.943,7.268,7.268,0,0,0,.419,1.281,8.411,8.411,0,0,0,.738,1.4,7.946,7.946,0,0,1,1.372,6.01c-.183.281-.374.555-.548.843a20.373,20.373,0,0,0-2.884,8.714c-.009-.04-.02-.08-.03-.12A42.05,42.05,0,0,1,386.846,62.854Zm3.431-8.14a9.467,9.467,0,0,0,.655,3.719,8.408,8.408,0,0,0,.4.951c.012.021.025.041.036.061a7.514,7.514,0,0,0,.65,1.058,11.913,11.913,0,0,1,1.923,3.593,11.73,11.73,0,0,1,.467,3.208c-.241.291-.486.579-.722.874-1.163,1.437-2.345,2.872-3.418,4.4a9.38,9.38,0,0,0-1.926-5.135,6.13,6.13,0,0,1-.731-1.258,7.571,7.571,0,0,1-.287-.775,7.979,7.979,0,0,1-.236-3.386A35.774,35.774,0,0,1,390.277,54.714Zm2.307-3.464c.224-.3.456-.59.69-.879a3.524,3.524,0,0,0,.479-.681l.043.192a40.068,40.068,0,0,0,4.9,12.709c-1.43,1.443-2.806,2.945-4.112,4.5a10.566,10.566,0,0,0-2.255-6.205,7.812,7.812,0,0,1-.5-.679l.049.077c-.024-.037-.05-.073-.074-.111.008.012.017.023.025.034l-.053-.082c-.055-.087-.1-.178-.156-.267-.083-.141-.17-.281-.244-.427-.037-.071-.067-.145-.1-.216-.086-.182-.168-.367-.241-.554a8.731,8.731,0,0,1-.444-4.094c.007-.066.022-.272.032-.333-.008-.023.015-.043-.009-.068A33.314,33.314,0,0,1,392.584,51.25Zm4.139-2.928.008,0c2.333-.748,4.466-.358,7.022,1.259l0,.021-.036.219-.075.438q-.105.57-.221,1.139a8.173,8.173,0,0,0-9.021-.112c-.011-.052-.023-.1-.034-.157-.051-.269-.206-1.054-.248-1.308l-.037-.219,0-.018c.006,0,.008-.007.013-.009A12.348,12.348,0,0,1,396.723,48.322Zm1.739-5.948c.162.013.45.033.455.038s.025-.011.038-.016v.037l.446-.038a10.579,10.579,0,0,0,.818,4.6,5.7,5.7,0,0,0,.468.854,9.13,9.13,0,0,0-3.424-.05A10.884,10.884,0,0,0,398.462,42.374Zm6.077,8.007c.235.289.468.58.693.876a32.943,32.943,0,0,1,2.112,3.136,8.481,8.481,0,0,1-1.795,6.539,10.565,10.565,0,0,0-2.255,6.226c-1.322-1.581-2.715-3.1-4.164-4.567a40.383,40.383,0,0,0,4.9-12.709l.043-.187a1.051,1.051,0,0,0,.134.277Zm-9.926,39.781a36.682,36.682,0,0,1,1.71-4.572c1.329-2.986,3.267-5.657,4.356-8.758,1.54-4.281.823-9.03-1.011-13.115,1.39,1.565,2.712,3.184,3.99,4.842.763.952,1.514,1.922,2.225,2.916a21.929,21.929,0,0,1,.66,9.323c-.659,4.921-3.771,8.971-5.88,13.34a55.386,55.386,0,0,0-4.6,13.184q-1.348-3.855-2.887-7.639A35.225,35.225,0,0,1,394.613,90.162Zm7.8-34.834a25.24,25.24,0,0,1-1.726,4.206,22.826,22.826,0,0,1-1.774,2.789,22.833,22.833,0,0,1-1.775-2.789,24.177,24.177,0,0,1-1.744-4.284A6.022,6.022,0,0,1,402.413,55.328Zm.054-.165a7.051,7.051,0,0,0-7.123-.079c-.36-1.193-.655-2.408-.91-3.627a7.31,7.31,0,0,1,8.947.115C403.13,52.781,402.832,53.983,402.467,55.163Zm-8.3,13.4c1.489-1.93,3.034-3.811,4.68-5.611,2.122,4.237,3.083,9.215,1.564,13.795a27.628,27.628,0,0,1-1.972,4.442,47.094,47.094,0,0,0-3.831,8.976,42.628,42.628,0,0,0-1.64,9.014q-1.66-4.052-3.54-8.01a43.575,43.575,0,0,1-2.575-5.936c.141-1.181.309-2.354.472-3.509C388.092,76.676,391.032,72.471,394.167,68.559Zm4.764,47.189-.018.052-.018-.052c-.381-1.145-.916-2.556-1.26-3.712q-.7-2.2-1.461-4.38a63.777,63.777,0,0,1,6.81-17.827c3.452-5.526,4.881-11.005,3.635-17.289.3.45.6.9.876,1.368a.367.367,0,0,0,.081.137A21.126,21.126,0,0,1,410.5,81.72c.163,1.155.33,2.328.471,3.509a43.441,43.441,0,0,1-2.574,5.936,164.186,164.186,0,0,0-8.207,20.871C399.846,113.2,399.312,114.6,398.931,115.748Zm11.761-53.861a7.3,7.3,0,0,1-1.22,5.608,9.329,9.329,0,0,0-1.92,5.078c-1.073-1.526-2.253-2.96-3.414-4.395-.221-.275-.449-.544-.674-.814a10.528,10.528,0,0,1,2.117-6.409,9.594,9.594,0,0,0,1.932-6.292A35.416,35.416,0,0,1,410.692,61.887Zm-1.644-5.09a40.461,40.461,0,0,0-3.585-5.713,10.373,10.373,0,0,0-1.414-1.692.158.158,0,0,0-.051-.069A7.879,7.879,0,0,0,401.29,48a3.971,3.971,0,0,0-.552-1.257,9.629,9.629,0,0,1-1.127-4.461l-.111-.107-.531,0c-.016-.009-.027-.023-.05-.023l-.556,0a.1.1,0,0,0-.11.106,12.149,12.149,0,0,1-1.663,5.663l.037.021a7.181,7.181,0,0,0-2.683,1.318h0l-.009.008c-.053.042-.11.08-.162.124a.154.154,0,0,0-.068.082,12.5,12.5,0,0,0-1.333,1.617,39.948,39.948,0,0,0-3.594,5.706c-4.177,7.987-5.814,17.568-3.564,26.377a25.527,25.527,0,0,0,.846,2.423,30.3,30.3,0,0,0,1.03,11.2c1.47,4.963,4.577,9.128,7.557,13.263a37.629,37.629,0,0,1,4.1,6.331c0,.011,0-.013-.005-.037l.014.025a.2.2,0,0,0,.142.064l.01,0h.009l.011,0a.2.2,0,0,0,.141-.064.083.083,0,0,0,.013-.02c0,.022-.006.042,0,.032a37.564,37.564,0,0,1,4.1-6.331c2.979-4.136,6.086-8.3,7.557-13.263a30.3,30.3,0,0,0,1.03-11.2,25.527,25.527,0,0,0,.846-2.423C414.863,74.364,413.219,64.786,409.048,56.8Z"
    transform="translate(-383.919 -41.955)" fill="#F8F5EF" stroke="#F8F5EF" stroke-linecap="round"
    stroke-linejoin="round" stroke-width="0.395" />
</svg>
